%TF.GenerationSoftware,KiCad,Pcbnew,6.0.11+dfsg-1*%
%TF.CreationDate,2024-09-22T16:02:17-05:00*%
%TF.ProjectId,ps2_pico_hat,7073325f-7069-4636-9f5f-6861742e6b69,rev?*%
%TF.SameCoordinates,Original*%
%TF.FileFunction,Legend,Top*%
%TF.FilePolarity,Positive*%
%FSLAX46Y46*%
G04 Gerber Fmt 4.6, Leading zero omitted, Abs format (unit mm)*
G04 Created by KiCad (PCBNEW 6.0.11+dfsg-1) date 2024-09-22 16:02:17*
%MOMM*%
%LPD*%
G01*
G04 APERTURE LIST*
%ADD10C,0.150000*%
%ADD11C,0.032512*%
%ADD12C,0.120000*%
%ADD13C,0.203200*%
G04 APERTURE END LIST*
D10*
%TO.C,J1*%
X99615666Y-76692380D02*
X99615666Y-77406666D01*
X99568047Y-77549523D01*
X99472809Y-77644761D01*
X99329952Y-77692380D01*
X99234714Y-77692380D01*
X100615666Y-77692380D02*
X100044238Y-77692380D01*
X100329952Y-77692380D02*
X100329952Y-76692380D01*
X100234714Y-76835238D01*
X100139476Y-76930476D01*
X100044238Y-76978095D01*
D11*
%TO.C,R7*%
X113216566Y-129141195D02*
X113091937Y-128963153D01*
X113002916Y-129141195D02*
X113002916Y-128767307D01*
X113145349Y-128767307D01*
X113180958Y-128785112D01*
X113198762Y-128802916D01*
X113216566Y-128838524D01*
X113216566Y-128891937D01*
X113198762Y-128927545D01*
X113180958Y-128945349D01*
X113145349Y-128963153D01*
X113002916Y-128963153D01*
X113341195Y-128767307D02*
X113590454Y-128767307D01*
X113430216Y-129141195D01*
%TO.C,R6*%
X104707566Y-129522195D02*
X104582937Y-129344153D01*
X104493916Y-129522195D02*
X104493916Y-129148307D01*
X104636349Y-129148307D01*
X104671958Y-129166112D01*
X104689762Y-129183916D01*
X104707566Y-129219524D01*
X104707566Y-129272937D01*
X104689762Y-129308545D01*
X104671958Y-129326349D01*
X104636349Y-129344153D01*
X104493916Y-129344153D01*
X105028042Y-129148307D02*
X104956825Y-129148307D01*
X104921216Y-129166112D01*
X104903412Y-129183916D01*
X104867804Y-129237328D01*
X104850000Y-129308545D01*
X104850000Y-129450979D01*
X104867804Y-129486587D01*
X104885608Y-129504391D01*
X104921216Y-129522195D01*
X104992433Y-129522195D01*
X105028042Y-129504391D01*
X105045846Y-129486587D01*
X105063650Y-129450979D01*
X105063650Y-129361958D01*
X105045846Y-129326349D01*
X105028042Y-129308545D01*
X104992433Y-129290741D01*
X104921216Y-129290741D01*
X104885608Y-129308545D01*
X104867804Y-129326349D01*
X104850000Y-129361958D01*
%TO.C,R1*%
X104834566Y-125331195D02*
X104709937Y-125153153D01*
X104620916Y-125331195D02*
X104620916Y-124957307D01*
X104763349Y-124957307D01*
X104798958Y-124975112D01*
X104816762Y-124992916D01*
X104834566Y-125028524D01*
X104834566Y-125081937D01*
X104816762Y-125117545D01*
X104798958Y-125135349D01*
X104763349Y-125153153D01*
X104620916Y-125153153D01*
X105190650Y-125331195D02*
X104977000Y-125331195D01*
X105083825Y-125331195D02*
X105083825Y-124957307D01*
X105048216Y-125010720D01*
X105012608Y-125046328D01*
X104977000Y-125064132D01*
%TO.C,Q4*%
X108983804Y-124128629D02*
X108966000Y-124164237D01*
X108930391Y-124199845D01*
X108876979Y-124253258D01*
X108859174Y-124288866D01*
X108859174Y-124324475D01*
X108948195Y-124306671D02*
X108930391Y-124342279D01*
X108894783Y-124377887D01*
X108823566Y-124395692D01*
X108698937Y-124395692D01*
X108627720Y-124377887D01*
X108592112Y-124342279D01*
X108574307Y-124306671D01*
X108574307Y-124235454D01*
X108592112Y-124199845D01*
X108627720Y-124164237D01*
X108698937Y-124146433D01*
X108823566Y-124146433D01*
X108894783Y-124164237D01*
X108930391Y-124199845D01*
X108948195Y-124235454D01*
X108948195Y-124306671D01*
X108698937Y-123825957D02*
X108948195Y-123825957D01*
X108556503Y-123914978D02*
X108823566Y-124003999D01*
X108823566Y-123772545D01*
%TO.C,Q1*%
X108856804Y-114603629D02*
X108839000Y-114639237D01*
X108803391Y-114674845D01*
X108749979Y-114728258D01*
X108732174Y-114763866D01*
X108732174Y-114799475D01*
X108821195Y-114781671D02*
X108803391Y-114817279D01*
X108767783Y-114852887D01*
X108696566Y-114870692D01*
X108571937Y-114870692D01*
X108500720Y-114852887D01*
X108465112Y-114817279D01*
X108447307Y-114781671D01*
X108447307Y-114710454D01*
X108465112Y-114674845D01*
X108500720Y-114639237D01*
X108571937Y-114621433D01*
X108696566Y-114621433D01*
X108767783Y-114639237D01*
X108803391Y-114674845D01*
X108821195Y-114710454D01*
X108821195Y-114781671D01*
X108821195Y-114265349D02*
X108821195Y-114478999D01*
X108821195Y-114372174D02*
X108447307Y-114372174D01*
X108500720Y-114407783D01*
X108536328Y-114443391D01*
X108554132Y-114478999D01*
%TO.C,Q3*%
X108983804Y-118413629D02*
X108966000Y-118449237D01*
X108930391Y-118484845D01*
X108876979Y-118538258D01*
X108859174Y-118573866D01*
X108859174Y-118609475D01*
X108948195Y-118591671D02*
X108930391Y-118627279D01*
X108894783Y-118662887D01*
X108823566Y-118680692D01*
X108698937Y-118680692D01*
X108627720Y-118662887D01*
X108592112Y-118627279D01*
X108574307Y-118591671D01*
X108574307Y-118520454D01*
X108592112Y-118484845D01*
X108627720Y-118449237D01*
X108698937Y-118431433D01*
X108823566Y-118431433D01*
X108894783Y-118449237D01*
X108930391Y-118484845D01*
X108948195Y-118520454D01*
X108948195Y-118591671D01*
X108574307Y-118306804D02*
X108574307Y-118075349D01*
X108716741Y-118199978D01*
X108716741Y-118146566D01*
X108734545Y-118110957D01*
X108752349Y-118093153D01*
X108787958Y-118075349D01*
X108876979Y-118075349D01*
X108912587Y-118093153D01*
X108930391Y-118110957D01*
X108948195Y-118146566D01*
X108948195Y-118253391D01*
X108930391Y-118288999D01*
X108912587Y-118306804D01*
%TO.C,R4*%
X113089566Y-115806195D02*
X112964937Y-115628153D01*
X112875916Y-115806195D02*
X112875916Y-115432307D01*
X113018349Y-115432307D01*
X113053958Y-115450112D01*
X113071762Y-115467916D01*
X113089566Y-115503524D01*
X113089566Y-115556937D01*
X113071762Y-115592545D01*
X113053958Y-115610349D01*
X113018349Y-115628153D01*
X112875916Y-115628153D01*
X113410042Y-115556937D02*
X113410042Y-115806195D01*
X113321021Y-115414503D02*
X113232000Y-115681566D01*
X113463454Y-115681566D01*
%TO.C,R2*%
X104453566Y-119362195D02*
X104328937Y-119184153D01*
X104239916Y-119362195D02*
X104239916Y-118988307D01*
X104382349Y-118988307D01*
X104417958Y-119006112D01*
X104435762Y-119023916D01*
X104453566Y-119059524D01*
X104453566Y-119112937D01*
X104435762Y-119148545D01*
X104417958Y-119166349D01*
X104382349Y-119184153D01*
X104239916Y-119184153D01*
X104596000Y-119023916D02*
X104613804Y-119006112D01*
X104649412Y-118988307D01*
X104738433Y-118988307D01*
X104774042Y-119006112D01*
X104791846Y-119023916D01*
X104809650Y-119059524D01*
X104809650Y-119095132D01*
X104791846Y-119148545D01*
X104578195Y-119362195D01*
X104809650Y-119362195D01*
%TO.C,Q2*%
X109237804Y-127938629D02*
X109220000Y-127974237D01*
X109184391Y-128009845D01*
X109130979Y-128063258D01*
X109113174Y-128098866D01*
X109113174Y-128134475D01*
X109202195Y-128116671D02*
X109184391Y-128152279D01*
X109148783Y-128187887D01*
X109077566Y-128205692D01*
X108952937Y-128205692D01*
X108881720Y-128187887D01*
X108846112Y-128152279D01*
X108828307Y-128116671D01*
X108828307Y-128045454D01*
X108846112Y-128009845D01*
X108881720Y-127974237D01*
X108952937Y-127956433D01*
X109077566Y-127956433D01*
X109148783Y-127974237D01*
X109184391Y-128009845D01*
X109202195Y-128045454D01*
X109202195Y-128116671D01*
X108863916Y-127813999D02*
X108846112Y-127796195D01*
X108828307Y-127760587D01*
X108828307Y-127671566D01*
X108846112Y-127635957D01*
X108863916Y-127618153D01*
X108899524Y-127600349D01*
X108935132Y-127600349D01*
X108988545Y-127618153D01*
X109202195Y-127831804D01*
X109202195Y-127600349D01*
D10*
%TO.C,J3*%
X117395666Y-76692380D02*
X117395666Y-77406666D01*
X117348047Y-77549523D01*
X117252809Y-77644761D01*
X117109952Y-77692380D01*
X117014714Y-77692380D01*
X117776619Y-76692380D02*
X118395666Y-76692380D01*
X118062333Y-77073333D01*
X118205190Y-77073333D01*
X118300428Y-77120952D01*
X118348047Y-77168571D01*
X118395666Y-77263809D01*
X118395666Y-77501904D01*
X118348047Y-77597142D01*
X118300428Y-77644761D01*
X118205190Y-77692380D01*
X117919476Y-77692380D01*
X117824238Y-77644761D01*
X117776619Y-77597142D01*
D11*
%TO.C,R5*%
X113089566Y-125204195D02*
X112964937Y-125026153D01*
X112875916Y-125204195D02*
X112875916Y-124830307D01*
X113018349Y-124830307D01*
X113053958Y-124848112D01*
X113071762Y-124865916D01*
X113089566Y-124901524D01*
X113089566Y-124954937D01*
X113071762Y-124990545D01*
X113053958Y-125008349D01*
X113018349Y-125026153D01*
X112875916Y-125026153D01*
X113427846Y-124830307D02*
X113249804Y-124830307D01*
X113232000Y-125008349D01*
X113249804Y-124990545D01*
X113285412Y-124972741D01*
X113374433Y-124972741D01*
X113410042Y-124990545D01*
X113427846Y-125008349D01*
X113445650Y-125043958D01*
X113445650Y-125132979D01*
X113427846Y-125168587D01*
X113410042Y-125186391D01*
X113374433Y-125204195D01*
X113285412Y-125204195D01*
X113249804Y-125186391D01*
X113232000Y-125168587D01*
%TO.C,R3*%
X104326566Y-115679195D02*
X104201937Y-115501153D01*
X104112916Y-115679195D02*
X104112916Y-115305307D01*
X104255349Y-115305307D01*
X104290958Y-115323112D01*
X104308762Y-115340916D01*
X104326566Y-115376524D01*
X104326566Y-115429937D01*
X104308762Y-115465545D01*
X104290958Y-115483349D01*
X104255349Y-115501153D01*
X104112916Y-115501153D01*
X104451195Y-115305307D02*
X104682650Y-115305307D01*
X104558021Y-115447741D01*
X104611433Y-115447741D01*
X104647042Y-115465545D01*
X104664846Y-115483349D01*
X104682650Y-115518958D01*
X104682650Y-115607979D01*
X104664846Y-115643587D01*
X104647042Y-115661391D01*
X104611433Y-115679195D01*
X104504608Y-115679195D01*
X104469000Y-115661391D01*
X104451195Y-115643587D01*
%TO.C,R8*%
X112962566Y-119489195D02*
X112837937Y-119311153D01*
X112748916Y-119489195D02*
X112748916Y-119115307D01*
X112891349Y-119115307D01*
X112926958Y-119133112D01*
X112944762Y-119150916D01*
X112962566Y-119186524D01*
X112962566Y-119239937D01*
X112944762Y-119275545D01*
X112926958Y-119293349D01*
X112891349Y-119311153D01*
X112748916Y-119311153D01*
X113176216Y-119275545D02*
X113140608Y-119257741D01*
X113122804Y-119239937D01*
X113105000Y-119204328D01*
X113105000Y-119186524D01*
X113122804Y-119150916D01*
X113140608Y-119133112D01*
X113176216Y-119115307D01*
X113247433Y-119115307D01*
X113283042Y-119133112D01*
X113300846Y-119150916D01*
X113318650Y-119186524D01*
X113318650Y-119204328D01*
X113300846Y-119239937D01*
X113283042Y-119257741D01*
X113247433Y-119275545D01*
X113176216Y-119275545D01*
X113140608Y-119293349D01*
X113122804Y-119311153D01*
X113105000Y-119346762D01*
X113105000Y-119417979D01*
X113122804Y-119453587D01*
X113140608Y-119471391D01*
X113176216Y-119489195D01*
X113247433Y-119489195D01*
X113283042Y-119471391D01*
X113300846Y-119453587D01*
X113318650Y-119417979D01*
X113318650Y-119346762D01*
X113300846Y-119311153D01*
X113283042Y-119293349D01*
X113247433Y-119275545D01*
D12*
%TO.C,J1*%
X101279000Y-81280000D02*
X101279000Y-129600000D01*
X101279000Y-78680000D02*
X101279000Y-80010000D01*
X98619000Y-81280000D02*
X101279000Y-81280000D01*
X98619000Y-129600000D02*
X101279000Y-129600000D01*
X99949000Y-78680000D02*
X101279000Y-78680000D01*
X98619000Y-81280000D02*
X98619000Y-129600000D01*
%TO.C,R7*%
G36*
X113512600Y-128270000D02*
G01*
X113055400Y-128270000D01*
X113055400Y-127508000D01*
X113512600Y-127508000D01*
X113512600Y-128270000D01*
G37*
%TO.C,R6*%
G36*
X105003600Y-128651000D02*
G01*
X104546400Y-128651000D01*
X104546400Y-127889000D01*
X105003600Y-127889000D01*
X105003600Y-128651000D01*
G37*
%TO.C,R1*%
G36*
X105130600Y-124460000D02*
G01*
X104673400Y-124460000D01*
X104673400Y-123698000D01*
X105130600Y-123698000D01*
X105130600Y-124460000D01*
G37*
D13*
%TO.C,Q4*%
X109539000Y-125479000D02*
X108739000Y-125479000D01*
X109539000Y-124879000D02*
X109539000Y-125479000D01*
X109539000Y-122679000D02*
X108739000Y-122679000D01*
X109539000Y-123279000D02*
X109539000Y-122679000D01*
%TO.C,Q1*%
X109412000Y-113027000D02*
X108612000Y-113027000D01*
X109412000Y-115827000D02*
X108612000Y-115827000D01*
X109412000Y-113627000D02*
X109412000Y-113027000D01*
X109412000Y-115227000D02*
X109412000Y-115827000D01*
%TO.C,Q3*%
X109412000Y-117437000D02*
X109412000Y-116837000D01*
X109412000Y-119637000D02*
X108612000Y-119637000D01*
X109412000Y-116837000D02*
X108612000Y-116837000D01*
X109412000Y-119037000D02*
X109412000Y-119637000D01*
%TO.C,R4*%
G36*
X113385600Y-114935000D02*
G01*
X112928400Y-114935000D01*
X112928400Y-114173000D01*
X113385600Y-114173000D01*
X113385600Y-114935000D01*
G37*
%TO.C,LOGO2*%
G36*
X109775647Y-101173649D02*
G01*
X109897470Y-101212656D01*
X110011177Y-101271231D01*
X110402620Y-100952054D01*
X110756946Y-101306380D01*
X110435035Y-101701177D01*
X110531046Y-101932916D01*
X111037800Y-101984439D01*
X111037800Y-102485561D01*
X110531046Y-102537084D01*
X110435035Y-102768823D01*
X110756946Y-103163620D01*
X110402620Y-103517946D01*
X110011177Y-103198770D01*
X109830601Y-103291794D01*
X109562679Y-102645073D01*
X109800262Y-102452600D01*
X109847649Y-102356468D01*
X109866729Y-102245339D01*
X109853464Y-102133366D01*
X109808947Y-102029771D01*
X109736842Y-101943082D01*
X109643087Y-101880439D01*
X109535406Y-101847001D01*
X109422658Y-101845520D01*
X109314132Y-101876119D01*
X109218766Y-101936276D01*
X109144411Y-102021038D01*
X109097187Y-102123431D01*
X109081824Y-102229233D01*
X109151077Y-102457565D01*
X109224688Y-102538773D01*
X109565677Y-102743100D01*
X109344710Y-102743100D01*
X109118668Y-103288732D01*
X108967403Y-103218577D01*
X108935078Y-103200192D01*
X108545380Y-103517946D01*
X108191054Y-103163620D01*
X108512965Y-102768823D01*
X108416954Y-102537084D01*
X107910200Y-102485561D01*
X107910200Y-101984439D01*
X108416954Y-101932916D01*
X108512965Y-101701177D01*
X108191054Y-101306380D01*
X108545380Y-100952054D01*
X108940177Y-101273965D01*
X109171916Y-101177954D01*
X109223439Y-100671200D01*
X109724561Y-100671200D01*
X109775647Y-101173649D01*
G37*
%TO.C,R2*%
G36*
X104749600Y-118491000D02*
G01*
X104292400Y-118491000D01*
X104292400Y-117729000D01*
X104749600Y-117729000D01*
X104749600Y-118491000D01*
G37*
%TO.C,Q2*%
X109666000Y-126489000D02*
X108866000Y-126489000D01*
X109666000Y-128689000D02*
X109666000Y-129289000D01*
X109666000Y-127089000D02*
X109666000Y-126489000D01*
X109666000Y-129289000D02*
X108866000Y-129289000D01*
D12*
%TO.C,J3*%
X116399000Y-129600000D02*
X119059000Y-129600000D01*
X117729000Y-78680000D02*
X119059000Y-78680000D01*
X119059000Y-81280000D02*
X119059000Y-129600000D01*
X116399000Y-81280000D02*
X119059000Y-81280000D01*
X119059000Y-78680000D02*
X119059000Y-80010000D01*
X116399000Y-81280000D02*
X116399000Y-129600000D01*
%TO.C,R5*%
G36*
X113385600Y-124333000D02*
G01*
X112928400Y-124333000D01*
X112928400Y-123571000D01*
X113385600Y-123571000D01*
X113385600Y-124333000D01*
G37*
%TO.C,R3*%
G36*
X104622600Y-114808000D02*
G01*
X104165400Y-114808000D01*
X104165400Y-114046000D01*
X104622600Y-114046000D01*
X104622600Y-114808000D01*
G37*
%TO.C,R8*%
G36*
X113385600Y-118618000D02*
G01*
X112928400Y-118618000D01*
X112928400Y-117856000D01*
X113385600Y-117856000D01*
X113385600Y-118618000D01*
G37*
%TD*%
M02*
