%TF.GenerationSoftware,KiCad,Pcbnew,6.0.11+dfsg-1*%
%TF.CreationDate,2024-09-22T16:02:18-05:00*%
%TF.ProjectId,ps2_pico_hat,7073325f-7069-4636-9f5f-6861742e6b69,rev?*%
%TF.SameCoordinates,Original*%
%TF.FileFunction,Legend,Bot*%
%TF.FilePolarity,Positive*%
%FSLAX46Y46*%
G04 Gerber Fmt 4.6, Leading zero omitted, Abs format (unit mm)*
G04 Created by KiCad (PCBNEW 6.0.11+dfsg-1) date 2024-09-22 16:02:18*
%MOMM*%
%LPD*%
G01*
G04 APERTURE LIST*
%ADD10C,0.150000*%
%ADD11C,0.120000*%
G04 APERTURE END LIST*
D10*
%TO.C,Mini-DIN-6*%
X113088095Y-84702380D02*
X113088095Y-83702380D01*
X112754761Y-84416666D01*
X112421428Y-83702380D01*
X112421428Y-84702380D01*
X111945238Y-84702380D02*
X111945238Y-84035714D01*
X111945238Y-83702380D02*
X111992857Y-83750000D01*
X111945238Y-83797619D01*
X111897619Y-83750000D01*
X111945238Y-83702380D01*
X111945238Y-83797619D01*
X111469047Y-84035714D02*
X111469047Y-84702380D01*
X111469047Y-84130952D02*
X111421428Y-84083333D01*
X111326190Y-84035714D01*
X111183333Y-84035714D01*
X111088095Y-84083333D01*
X111040476Y-84178571D01*
X111040476Y-84702380D01*
X110564285Y-84702380D02*
X110564285Y-84035714D01*
X110564285Y-83702380D02*
X110611904Y-83750000D01*
X110564285Y-83797619D01*
X110516666Y-83750000D01*
X110564285Y-83702380D01*
X110564285Y-83797619D01*
X110088095Y-84321428D02*
X109326190Y-84321428D01*
X108850000Y-84702380D02*
X108850000Y-83702380D01*
X108611904Y-83702380D01*
X108469047Y-83750000D01*
X108373809Y-83845238D01*
X108326190Y-83940476D01*
X108278571Y-84130952D01*
X108278571Y-84273809D01*
X108326190Y-84464285D01*
X108373809Y-84559523D01*
X108469047Y-84654761D01*
X108611904Y-84702380D01*
X108850000Y-84702380D01*
X107850000Y-84702380D02*
X107850000Y-83702380D01*
X107373809Y-84702380D02*
X107373809Y-83702380D01*
X106802380Y-84702380D01*
X106802380Y-83702380D01*
X106326190Y-84321428D02*
X105564285Y-84321428D01*
X104659523Y-83702380D02*
X104850000Y-83702380D01*
X104945238Y-83750000D01*
X104992857Y-83797619D01*
X105088095Y-83940476D01*
X105135714Y-84130952D01*
X105135714Y-84511904D01*
X105088095Y-84607142D01*
X105040476Y-84654761D01*
X104945238Y-84702380D01*
X104754761Y-84702380D01*
X104659523Y-84654761D01*
X104611904Y-84607142D01*
X104564285Y-84511904D01*
X104564285Y-84273809D01*
X104611904Y-84178571D01*
X104659523Y-84130952D01*
X104754761Y-84083333D01*
X104945238Y-84083333D01*
X105040476Y-84130952D01*
X105088095Y-84178571D01*
X105135714Y-84273809D01*
D11*
X115850000Y-81750000D02*
X115850000Y-78750000D01*
X114850000Y-78300000D02*
X102850000Y-78300000D01*
X115850000Y-90750000D02*
X115850000Y-85750000D01*
X101850000Y-90750000D02*
X101850000Y-85750000D01*
X114850000Y-91200000D02*
X102850000Y-91200000D01*
X101850000Y-81750000D02*
X101850000Y-78750000D01*
%TO.C,LOGO1*%
G36*
X109776084Y-101177954D02*
G01*
X110007823Y-101273965D01*
X110402620Y-100952054D01*
X110756946Y-101306380D01*
X110435035Y-101701177D01*
X110531046Y-101932916D01*
X111037800Y-101984439D01*
X111037800Y-102485561D01*
X110531046Y-102537084D01*
X110435035Y-102768823D01*
X110756946Y-103163620D01*
X110402620Y-103517946D01*
X110012922Y-103200192D01*
X109980597Y-103218577D01*
X109829332Y-103288732D01*
X109603290Y-102743100D01*
X109382323Y-102743100D01*
X109723312Y-102538773D01*
X109796923Y-102457565D01*
X109866176Y-102229233D01*
X109850813Y-102123431D01*
X109803589Y-102021038D01*
X109729234Y-101936276D01*
X109633868Y-101876119D01*
X109525342Y-101845520D01*
X109412594Y-101847001D01*
X109304913Y-101880439D01*
X109211158Y-101943082D01*
X109139053Y-102029771D01*
X109094536Y-102133366D01*
X109081271Y-102245339D01*
X109100351Y-102356468D01*
X109147738Y-102452600D01*
X109385321Y-102645073D01*
X109117399Y-103291794D01*
X108936823Y-103198770D01*
X108545380Y-103517946D01*
X108191054Y-103163620D01*
X108512965Y-102768823D01*
X108416954Y-102537084D01*
X107910200Y-102485561D01*
X107910200Y-101984439D01*
X108416954Y-101932916D01*
X108512965Y-101701177D01*
X108191054Y-101306380D01*
X108545380Y-100952054D01*
X108936823Y-101271231D01*
X109050530Y-101212656D01*
X109172353Y-101173649D01*
X109223439Y-100671200D01*
X109724561Y-100671200D01*
X109776084Y-101177954D01*
G37*
%TD*%
M02*
