%TF.GenerationSoftware,KiCad,Pcbnew,6.0.11+dfsg-1*%
%TF.CreationDate,2024-09-22T16:02:17-05:00*%
%TF.ProjectId,ps2_pico_hat,7073325f-7069-4636-9f5f-6861742e6b69,rev?*%
%TF.SameCoordinates,Original*%
%TF.FileFunction,Copper,L2,Bot*%
%TF.FilePolarity,Positive*%
%FSLAX46Y46*%
G04 Gerber Fmt 4.6, Leading zero omitted, Abs format (unit mm)*
G04 Created by KiCad (PCBNEW 6.0.11+dfsg-1) date 2024-09-22 16:02:17*
%MOMM*%
%LPD*%
G01*
G04 APERTURE LIST*
%TA.AperFunction,ComponentPad*%
%ADD10R,1.700000X1.700000*%
%TD*%
%TA.AperFunction,ComponentPad*%
%ADD11O,1.700000X1.700000*%
%TD*%
%TA.AperFunction,ComponentPad*%
%ADD12C,1.524000*%
%TD*%
%TA.AperFunction,ViaPad*%
%ADD13C,0.800000*%
%TD*%
%TA.AperFunction,Conductor*%
%ADD14C,0.750000*%
%TD*%
G04 APERTURE END LIST*
D10*
%TO.P,J1,1,Pin_1*%
%TO.N,unconnected-(J1-Pad1)*%
X99949000Y-80010000D03*
D11*
%TO.P,J1,2,Pin_2*%
%TO.N,unconnected-(J1-Pad2)*%
X99949000Y-82550000D03*
%TO.P,J1,3,GND*%
%TO.N,/GND*%
X99949000Y-85090000D03*
%TO.P,J1,4,Pin_4*%
%TO.N,unconnected-(J1-Pad4)*%
X99949000Y-87630000D03*
%TO.P,J1,5,Pin_5*%
%TO.N,unconnected-(J1-Pad5)*%
X99949000Y-90170000D03*
%TO.P,J1,6,Pin_6*%
%TO.N,unconnected-(J1-Pad6)*%
X99949000Y-92710000D03*
%TO.P,J1,7,Pin_7*%
%TO.N,unconnected-(J1-Pad7)*%
X99949000Y-95250000D03*
%TO.P,J1,8,GND*%
%TO.N,/GND*%
X99949000Y-97790000D03*
%TO.P,J1,9,Pin_9*%
%TO.N,unconnected-(J1-Pad9)*%
X99949000Y-100330000D03*
%TO.P,J1,10,Pin_10*%
%TO.N,unconnected-(J1-Pad10)*%
X99949000Y-102870000D03*
%TO.P,J1,11,Pin_11*%
%TO.N,unconnected-(J1-Pad11)*%
X99949000Y-105410000D03*
%TO.P,J1,12,Pin_12*%
%TO.N,unconnected-(J1-Pad12)*%
X99949000Y-107950000D03*
%TO.P,J1,13,GND*%
%TO.N,/GND*%
X99949000Y-110490000D03*
%TO.P,J1,14,Pin_14*%
%TO.N,unconnected-(J1-Pad14)*%
X99949000Y-113030000D03*
%TO.P,J1,15,Pin_15*%
%TO.N,/LV1*%
X99949000Y-115570000D03*
%TO.P,J1,16,Pin_16*%
%TO.N,/LV2*%
X99949000Y-118110000D03*
%TO.P,J1,17,LV*%
%TO.N,LV*%
X99949000Y-120650000D03*
%TO.P,J1,18,GND*%
%TO.N,/GND*%
X99949000Y-123190000D03*
%TO.P,J1,19,Pin_19*%
%TO.N,/LV3*%
X99949000Y-125730000D03*
%TO.P,J1,20,Pin_20*%
%TO.N,/LV4*%
X99949000Y-128270000D03*
%TD*%
%TO.P,J3,21,Pin_21*%
%TO.N,unconnected-(J3-Pad21)*%
X117729000Y-128270000D03*
%TO.P,J3,22,Pin_22*%
%TO.N,unconnected-(J3-Pad22)*%
X117729000Y-125730000D03*
%TO.P,J3,23,GND*%
%TO.N,/GND*%
X117729000Y-123190000D03*
%TO.P,J3,24,Pin_24*%
%TO.N,unconnected-(J3-Pad24)*%
X117729000Y-120650000D03*
%TO.P,J3,25,Pin_25*%
%TO.N,unconnected-(J3-Pad25)*%
X117729000Y-118110000D03*
%TO.P,J3,26,Pin_26*%
%TO.N,unconnected-(J3-Pad26)*%
X117729000Y-115570000D03*
%TO.P,J3,27,Pin_27*%
%TO.N,unconnected-(J3-Pad27)*%
X117729000Y-113030000D03*
%TO.P,J3,28,GND*%
%TO.N,/GND*%
X117729000Y-110490000D03*
%TO.P,J3,29,Pin_29*%
%TO.N,unconnected-(J3-Pad29)*%
X117729000Y-107950000D03*
%TO.P,J3,30,Pin_30*%
%TO.N,unconnected-(J3-Pad30)*%
X117729000Y-105410000D03*
%TO.P,J3,31,Pin_31*%
%TO.N,unconnected-(J3-Pad31)*%
X117729000Y-102870000D03*
%TO.P,J3,32,Pin_32*%
%TO.N,unconnected-(J3-Pad32)*%
X117729000Y-100330000D03*
%TO.P,J3,33,Pin_33*%
%TO.N,unconnected-(J3-Pad33)*%
X117729000Y-97790000D03*
%TO.P,J3,34,Pin_34*%
%TO.N,unconnected-(J3-Pad34)*%
X117729000Y-95250000D03*
%TO.P,J3,35,Pin_35*%
%TO.N,unconnected-(J3-Pad35)*%
X117729000Y-92710000D03*
%TO.P,J3,36,LV*%
%TO.N,LV*%
X117729000Y-90170000D03*
%TO.P,J3,37,Pin_37*%
%TO.N,unconnected-(J3-Pad37)*%
X117729000Y-87630000D03*
%TO.P,J3,38,GND*%
%TO.N,/GND*%
X117729000Y-85090000D03*
%TO.P,J3,39,Pin_39*%
%TO.N,unconnected-(J3-Pad39)*%
X117729000Y-82550000D03*
D10*
%TO.P,J3,40,Pin_40*%
%TO.N,HV*%
X117729000Y-80010000D03*
%TD*%
D12*
%TO.P,Mini-DIN-6,1*%
%TO.N,/HV3*%
X107550000Y-86800000D03*
%TO.P,Mini-DIN-6,2*%
%TO.N,/HV1*%
X110150000Y-86800000D03*
%TO.P,Mini-DIN-6,3*%
%TO.N,HV*%
X105450000Y-86800000D03*
%TO.P,Mini-DIN-6,4*%
%TO.N,/GND*%
X112250000Y-86800000D03*
%TO.P,Mini-DIN-6,5*%
%TO.N,/HV4*%
X105450000Y-89300000D03*
%TO.P,Mini-DIN-6,6*%
%TO.N,/HV2*%
X112250000Y-89300000D03*
%TD*%
D13*
%TO.N,/LV3*%
X103016500Y-125114500D03*
X107061000Y-126111000D03*
%TO.N,/GND*%
X115316000Y-121920000D03*
X115189000Y-129159000D03*
X107188000Y-88900000D03*
X111633000Y-84582000D03*
X102108000Y-87249000D03*
X115443000Y-110490000D03*
X110871000Y-125857000D03*
X115443000Y-87376000D03*
X102616000Y-129413000D03*
X102235000Y-123190000D03*
X102870000Y-97790000D03*
X102362000Y-110490000D03*
X106426000Y-104394000D03*
X106299000Y-111633000D03*
X104902000Y-92710000D03*
X113538000Y-79756000D03*
X103505000Y-80391000D03*
X104521000Y-119761000D03*
X104013000Y-126492000D03*
%TO.N,LV*%
X106553000Y-118110000D03*
X113157000Y-92075000D03*
X106911500Y-124056500D03*
%TO.N,/LV2*%
X106553000Y-120142000D03*
X102362000Y-118110000D03*
%TO.N,/LV1*%
X106553000Y-115570000D03*
X102401000Y-115570000D03*
%TO.N,/HV1*%
X110998000Y-114427000D03*
%TO.N,/HV2*%
X110998000Y-118237000D03*
%TO.N,/HV3*%
X110998000Y-124079000D03*
%TO.N,/HV4*%
X111125000Y-127889000D03*
%TO.N,HV*%
X114007000Y-122721000D03*
X114007000Y-117094000D03*
X114007000Y-119673000D03*
X114007000Y-113372000D03*
X114007000Y-95289000D03*
X114007000Y-103544000D03*
X114007000Y-115736000D03*
X114134000Y-126404000D03*
X114134000Y-125095000D03*
%TD*%
D14*
%TO.N,/LV3*%
X106064500Y-125114500D02*
X107061000Y-126111000D01*
X103016500Y-125114500D02*
X106064500Y-125114500D01*
%TO.N,LV*%
X115062000Y-90170000D02*
X117729000Y-90170000D01*
X102040081Y-121539000D02*
X106934000Y-121539000D01*
X106553000Y-118110000D02*
X107696000Y-119253000D01*
X107696000Y-123272000D02*
X106911500Y-124056500D01*
X107696000Y-121539000D02*
X107696000Y-123272000D01*
X107696000Y-119253000D02*
X107696000Y-121539000D01*
X101151081Y-120650000D02*
X102040081Y-121539000D01*
X113157000Y-92075000D02*
X115062000Y-90170000D01*
X99949000Y-120650000D02*
X101151081Y-120650000D01*
X106934000Y-121539000D02*
X107696000Y-120777000D01*
%TO.N,/LV2*%
X102362000Y-118110000D02*
X104521000Y-118110000D01*
X104521000Y-118110000D02*
X106553000Y-120142000D01*
%TO.N,/LV1*%
X106553000Y-115570000D02*
X102401000Y-115570000D01*
%TO.N,/HV1*%
X110300200Y-86950200D02*
X110150000Y-86800000D01*
X110998000Y-114427000D02*
X110236000Y-113665000D01*
X110236000Y-113665000D02*
X110236000Y-86886000D01*
X110236000Y-86886000D02*
X110150000Y-86800000D01*
%TO.N,/HV2*%
X111976200Y-114021816D02*
X111976200Y-117258800D01*
X111379000Y-113424616D02*
X111976200Y-114021816D01*
X111976200Y-117258800D02*
X110998000Y-118237000D01*
X112250000Y-89300000D02*
X111379000Y-90171000D01*
X111379000Y-90171000D02*
X111379000Y-113424616D01*
%TO.N,/HV3*%
X110998000Y-124079000D02*
X109729400Y-122810400D01*
X109093000Y-88343000D02*
X107550000Y-86800000D01*
X109729400Y-122810400D02*
X109729400Y-118590344D01*
X109093000Y-117953944D02*
X109093000Y-88343000D01*
X109729400Y-118590344D02*
X109093000Y-117953944D01*
%TO.N,/HV4*%
X111125000Y-127889000D02*
X108776200Y-125540200D01*
X108077000Y-118285972D02*
X108077000Y-91927000D01*
X108776200Y-118985172D02*
X108077000Y-118285972D01*
X108776200Y-125540200D02*
X108776200Y-118985172D01*
X108077000Y-91927000D02*
X105450000Y-89300000D01*
%TO.N,HV*%
X114046000Y-113333000D02*
X114007000Y-113372000D01*
X114007000Y-119673000D02*
X114007000Y-122721000D01*
X114046000Y-119634000D02*
X114007000Y-119673000D01*
X114046000Y-95377000D02*
X114046000Y-113333000D01*
X114173000Y-124079000D02*
X114173000Y-126365000D01*
X114173000Y-126365000D02*
X114134000Y-126404000D01*
X114007000Y-122721000D02*
X114007000Y-123913000D01*
X114007000Y-123913000D02*
X114173000Y-124079000D01*
X114046000Y-113411000D02*
X114046000Y-119634000D01*
X114007000Y-113372000D02*
X114046000Y-113411000D01*
%TD*%
%TA.AperFunction,Conductor*%
%TO.N,/GND*%
G36*
X115766121Y-91073502D02*
G01*
X115812614Y-91127158D01*
X115824000Y-91179500D01*
X115824000Y-129667500D01*
X115803998Y-129735621D01*
X115750342Y-129782114D01*
X115698000Y-129793500D01*
X101980000Y-129793500D01*
X101911879Y-129773498D01*
X101865386Y-129719842D01*
X101854000Y-129667500D01*
X101854000Y-125149687D01*
X101863606Y-125116973D01*
X101856056Y-125101980D01*
X101854000Y-125079313D01*
X101854000Y-122547746D01*
X101874002Y-122479625D01*
X101927658Y-122433132D01*
X101987124Y-122423434D01*
X101987200Y-122421983D01*
X101990502Y-122422156D01*
X101993775Y-122422500D01*
X102013636Y-122422500D01*
X102020231Y-122422673D01*
X102079983Y-122425805D01*
X102079987Y-122425805D01*
X102086574Y-122426150D01*
X102099828Y-122424051D01*
X102119537Y-122422500D01*
X106686500Y-122422500D01*
X106754621Y-122442502D01*
X106801114Y-122496158D01*
X106812500Y-122548500D01*
X106812500Y-122853853D01*
X106792498Y-122921974D01*
X106775595Y-122942948D01*
X106455957Y-123262586D01*
X106440923Y-123275427D01*
X106305591Y-123373751D01*
X106305589Y-123373753D01*
X106300247Y-123377634D01*
X106172460Y-123519556D01*
X106151711Y-123555494D01*
X106091297Y-123660135D01*
X106076973Y-123684944D01*
X106017958Y-123866572D01*
X106017268Y-123873133D01*
X106017268Y-123873135D01*
X106006135Y-123979059D01*
X105997996Y-124056500D01*
X105998686Y-124063065D01*
X105998686Y-124063066D01*
X106001709Y-124091831D01*
X105988936Y-124161669D01*
X105940434Y-124213515D01*
X105876399Y-124231000D01*
X103242847Y-124231000D01*
X103216650Y-124228247D01*
X103118444Y-124207372D01*
X103118439Y-124207372D01*
X103111987Y-124206000D01*
X102921013Y-124206000D01*
X102914561Y-124207372D01*
X102914556Y-124207372D01*
X102831696Y-124224985D01*
X102734212Y-124245706D01*
X102728182Y-124248391D01*
X102728181Y-124248391D01*
X102565778Y-124320697D01*
X102565776Y-124320698D01*
X102559748Y-124323382D01*
X102554407Y-124327262D01*
X102554406Y-124327263D01*
X102504343Y-124363636D01*
X102405247Y-124435634D01*
X102400826Y-124440544D01*
X102400825Y-124440545D01*
X102299406Y-124553183D01*
X102277460Y-124577556D01*
X102262747Y-124603040D01*
X102189184Y-124730455D01*
X102181973Y-124742944D01*
X102122958Y-124924572D01*
X102122268Y-124931133D01*
X102122268Y-124931135D01*
X102105310Y-125092483D01*
X102098142Y-125109904D01*
X102100896Y-125114189D01*
X102105310Y-125136517D01*
X102122958Y-125304428D01*
X102181973Y-125486056D01*
X102277460Y-125651444D01*
X102405247Y-125793366D01*
X102494983Y-125858563D01*
X102554123Y-125901531D01*
X102559748Y-125905618D01*
X102565776Y-125908302D01*
X102565778Y-125908303D01*
X102594458Y-125921072D01*
X102734212Y-125983294D01*
X102816350Y-126000753D01*
X102914556Y-126021628D01*
X102914561Y-126021628D01*
X102921013Y-126023000D01*
X103111987Y-126023000D01*
X103118439Y-126021628D01*
X103118444Y-126021628D01*
X103216650Y-126000753D01*
X103242847Y-125998000D01*
X105646351Y-125998000D01*
X105714472Y-126018002D01*
X105735446Y-126034904D01*
X106273994Y-126573451D01*
X106294018Y-126599547D01*
X106301706Y-126612862D01*
X106321960Y-126647944D01*
X106326378Y-126652851D01*
X106326379Y-126652852D01*
X106431203Y-126769271D01*
X106449747Y-126789866D01*
X106604248Y-126902118D01*
X106610276Y-126904802D01*
X106610278Y-126904803D01*
X106772681Y-126977109D01*
X106778712Y-126979794D01*
X106872112Y-126999647D01*
X106959056Y-127018128D01*
X106959061Y-127018128D01*
X106965513Y-127019500D01*
X107156487Y-127019500D01*
X107162939Y-127018128D01*
X107162944Y-127018128D01*
X107249888Y-126999647D01*
X107343288Y-126979794D01*
X107349319Y-126977109D01*
X107511722Y-126904803D01*
X107511724Y-126904802D01*
X107517752Y-126902118D01*
X107672253Y-126789866D01*
X107690797Y-126769271D01*
X107795621Y-126652852D01*
X107795622Y-126652851D01*
X107800040Y-126647944D01*
X107864466Y-126536355D01*
X107892223Y-126488279D01*
X107892224Y-126488278D01*
X107895527Y-126482556D01*
X107954542Y-126300928D01*
X107956159Y-126285550D01*
X107958175Y-126266364D01*
X107985189Y-126200708D01*
X108043411Y-126160079D01*
X108114356Y-126157376D01*
X108171658Y-126191931D01*
X108172442Y-126191060D01*
X108176962Y-126195130D01*
X108177120Y-126195225D01*
X108181766Y-126200385D01*
X108192626Y-126208275D01*
X108207654Y-126221112D01*
X110337992Y-128351449D01*
X110358016Y-128377544D01*
X110382658Y-128420226D01*
X110382661Y-128420231D01*
X110385960Y-128425944D01*
X110513747Y-128567866D01*
X110668248Y-128680118D01*
X110674276Y-128682802D01*
X110674278Y-128682803D01*
X110836681Y-128755109D01*
X110842712Y-128757794D01*
X110936113Y-128777647D01*
X111023056Y-128796128D01*
X111023061Y-128796128D01*
X111029513Y-128797500D01*
X111220487Y-128797500D01*
X111226939Y-128796128D01*
X111226944Y-128796128D01*
X111313887Y-128777647D01*
X111407288Y-128757794D01*
X111413319Y-128755109D01*
X111575722Y-128682803D01*
X111575724Y-128682802D01*
X111581752Y-128680118D01*
X111736253Y-128567866D01*
X111864040Y-128425944D01*
X111959527Y-128260556D01*
X112018542Y-128078928D01*
X112038504Y-127889000D01*
X112018542Y-127699072D01*
X111959527Y-127517444D01*
X111864040Y-127352056D01*
X111736253Y-127210134D01*
X111715586Y-127195118D01*
X111595576Y-127107926D01*
X111580542Y-127095085D01*
X109696605Y-125211147D01*
X109662579Y-125148835D01*
X109659700Y-125122052D01*
X109659700Y-124294348D01*
X109679702Y-124226227D01*
X109733358Y-124179734D01*
X109803632Y-124169630D01*
X109868212Y-124199124D01*
X109874795Y-124205253D01*
X110210994Y-124541452D01*
X110231018Y-124567547D01*
X110258960Y-124615944D01*
X110386747Y-124757866D01*
X110485843Y-124829864D01*
X110510280Y-124847618D01*
X110541248Y-124870118D01*
X110547276Y-124872802D01*
X110547278Y-124872803D01*
X110709681Y-124945109D01*
X110715712Y-124947794D01*
X110809112Y-124967647D01*
X110896056Y-124986128D01*
X110896061Y-124986128D01*
X110902513Y-124987500D01*
X111093487Y-124987500D01*
X111099939Y-124986128D01*
X111099944Y-124986128D01*
X111186888Y-124967647D01*
X111280288Y-124947794D01*
X111286319Y-124945109D01*
X111448722Y-124872803D01*
X111448724Y-124872802D01*
X111454752Y-124870118D01*
X111485721Y-124847618D01*
X111510157Y-124829864D01*
X111609253Y-124757866D01*
X111737040Y-124615944D01*
X111832527Y-124450556D01*
X111891542Y-124268928D01*
X111892315Y-124261579D01*
X111910814Y-124085565D01*
X111911504Y-124079000D01*
X111903868Y-124006346D01*
X111892232Y-123895635D01*
X111892232Y-123895633D01*
X111891542Y-123889072D01*
X111832527Y-123707444D01*
X111816233Y-123679221D01*
X111740341Y-123547774D01*
X111737040Y-123542056D01*
X111721930Y-123525274D01*
X111613675Y-123405045D01*
X111613674Y-123405044D01*
X111609253Y-123400134D01*
X111468578Y-123297927D01*
X111453545Y-123285087D01*
X110649805Y-122481347D01*
X110615779Y-122419035D01*
X110612900Y-122392252D01*
X110612900Y-119239538D01*
X110632902Y-119171417D01*
X110686558Y-119124924D01*
X110756832Y-119114820D01*
X110765092Y-119116290D01*
X110798233Y-119123334D01*
X110896056Y-119144128D01*
X110896061Y-119144128D01*
X110902513Y-119145500D01*
X111093487Y-119145500D01*
X111099939Y-119144128D01*
X111099944Y-119144128D01*
X111190289Y-119124924D01*
X111280288Y-119105794D01*
X111286319Y-119103109D01*
X111448722Y-119030803D01*
X111448724Y-119030802D01*
X111454752Y-119028118D01*
X111469879Y-119017128D01*
X111565567Y-118947606D01*
X111609253Y-118915866D01*
X111737040Y-118773944D01*
X111764982Y-118725548D01*
X111785004Y-118699454D01*
X112544745Y-117939712D01*
X112559781Y-117926870D01*
X112570634Y-117918985D01*
X112615095Y-117869606D01*
X112619636Y-117864821D01*
X112633672Y-117850785D01*
X112646169Y-117835353D01*
X112650453Y-117830338D01*
X112690483Y-117785880D01*
X112690487Y-117785875D01*
X112694904Y-117780969D01*
X112701612Y-117769351D01*
X112712807Y-117753063D01*
X112717090Y-117747774D01*
X112717091Y-117747773D01*
X112721248Y-117742639D01*
X112751414Y-117683434D01*
X112754537Y-117677681D01*
X112787764Y-117620131D01*
X112789806Y-117613847D01*
X112789808Y-117613842D01*
X112791908Y-117607379D01*
X112799472Y-117589117D01*
X112802563Y-117583051D01*
X112802566Y-117583042D01*
X112805562Y-117577163D01*
X112815130Y-117541454D01*
X112822756Y-117512996D01*
X112824622Y-117506694D01*
X112845154Y-117443502D01*
X112846555Y-117430172D01*
X112850158Y-117410729D01*
X112853630Y-117397771D01*
X112854143Y-117387996D01*
X112856279Y-117347227D01*
X112857107Y-117331428D01*
X112857624Y-117324859D01*
X112859700Y-117305106D01*
X112859700Y-117285245D01*
X112859873Y-117278650D01*
X112860273Y-117271018D01*
X112883813Y-117204038D01*
X112939828Y-117160417D01*
X113010535Y-117154005D01*
X113073483Y-117186838D01*
X113108688Y-117248491D01*
X113111410Y-117264441D01*
X113113458Y-117283928D01*
X113148344Y-117391296D01*
X113156333Y-117415883D01*
X113162500Y-117454819D01*
X113162500Y-119312181D01*
X113156333Y-119351117D01*
X113113458Y-119483072D01*
X113112768Y-119489633D01*
X113112768Y-119489635D01*
X113101789Y-119594098D01*
X113093496Y-119673000D01*
X113094186Y-119679565D01*
X113108119Y-119812126D01*
X113113458Y-119862928D01*
X113115498Y-119869206D01*
X113117333Y-119874854D01*
X113123500Y-119913790D01*
X113123500Y-122480210D01*
X113117333Y-122519146D01*
X113113458Y-122531072D01*
X113112768Y-122537633D01*
X113112768Y-122537635D01*
X113111626Y-122548500D01*
X113093496Y-122721000D01*
X113113458Y-122910928D01*
X113115498Y-122917206D01*
X113117333Y-122922854D01*
X113123500Y-122961790D01*
X113123500Y-123833543D01*
X113121949Y-123853255D01*
X113119850Y-123866507D01*
X113120195Y-123873094D01*
X113120195Y-123873098D01*
X113123327Y-123932850D01*
X113123500Y-123939445D01*
X113123500Y-123959306D01*
X113123844Y-123962577D01*
X113125576Y-123979059D01*
X113126093Y-123985633D01*
X113128560Y-124032694D01*
X113129570Y-124051971D01*
X113133042Y-124064929D01*
X113136645Y-124084372D01*
X113138046Y-124097702D01*
X113158578Y-124160894D01*
X113160444Y-124167196D01*
X113172856Y-124213515D01*
X113177638Y-124231363D01*
X113180634Y-124237242D01*
X113180637Y-124237251D01*
X113183728Y-124243317D01*
X113191292Y-124261579D01*
X113193392Y-124268043D01*
X113193395Y-124268051D01*
X113195436Y-124274331D01*
X113198738Y-124280050D01*
X113198740Y-124280055D01*
X113228654Y-124331867D01*
X113231787Y-124337637D01*
X113261953Y-124396839D01*
X113266109Y-124401971D01*
X113269172Y-124406688D01*
X113289500Y-124475313D01*
X113289500Y-124734181D01*
X113283333Y-124773117D01*
X113240458Y-124905072D01*
X113239768Y-124911633D01*
X113239768Y-124911635D01*
X113229021Y-125013885D01*
X113220496Y-125095000D01*
X113221186Y-125101565D01*
X113228825Y-125174242D01*
X113240458Y-125284928D01*
X113255079Y-125329926D01*
X113283333Y-125416883D01*
X113289500Y-125455819D01*
X113289500Y-126043181D01*
X113283333Y-126082117D01*
X113240458Y-126214072D01*
X113239768Y-126220633D01*
X113239768Y-126220635D01*
X113228789Y-126325098D01*
X113220496Y-126404000D01*
X113221186Y-126410565D01*
X113239539Y-126585181D01*
X113240458Y-126593928D01*
X113299473Y-126775556D01*
X113302776Y-126781278D01*
X113302777Y-126781279D01*
X113307735Y-126789866D01*
X113394960Y-126940944D01*
X113399378Y-126945851D01*
X113399379Y-126945852D01*
X113431176Y-126981166D01*
X113522747Y-127082866D01*
X113677248Y-127195118D01*
X113683276Y-127197802D01*
X113683278Y-127197803D01*
X113845681Y-127270109D01*
X113851712Y-127272794D01*
X113945113Y-127292647D01*
X114032056Y-127311128D01*
X114032061Y-127311128D01*
X114038513Y-127312500D01*
X114229487Y-127312500D01*
X114235939Y-127311128D01*
X114235944Y-127311128D01*
X114322887Y-127292647D01*
X114416288Y-127272794D01*
X114422319Y-127270109D01*
X114584722Y-127197803D01*
X114584724Y-127197802D01*
X114590752Y-127195118D01*
X114745253Y-127082866D01*
X114836824Y-126981166D01*
X114868621Y-126945852D01*
X114868622Y-126945851D01*
X114873040Y-126940944D01*
X114960265Y-126789866D01*
X114965223Y-126781279D01*
X114965224Y-126781278D01*
X114968527Y-126775556D01*
X114984406Y-126726685D01*
X114984498Y-126726445D01*
X114984564Y-126726331D01*
X114985323Y-126723996D01*
X114988708Y-126713579D01*
X114996272Y-126695317D01*
X114999365Y-126689245D01*
X115002362Y-126683363D01*
X115019559Y-126619183D01*
X115021424Y-126612888D01*
X115041954Y-126549702D01*
X115042644Y-126543133D01*
X115042646Y-126543126D01*
X115043358Y-126536355D01*
X115046958Y-126516926D01*
X115050429Y-126503971D01*
X115051552Y-126482556D01*
X115053905Y-126437652D01*
X115054422Y-126431078D01*
X115056156Y-126414577D01*
X115056500Y-126411306D01*
X115056500Y-126391426D01*
X115056673Y-126384831D01*
X115059804Y-126325098D01*
X115059804Y-126325094D01*
X115060149Y-126318507D01*
X115058051Y-126305260D01*
X115056500Y-126285550D01*
X115056500Y-124158450D01*
X115058051Y-124138739D01*
X115059117Y-124132009D01*
X115060149Y-124125493D01*
X115059022Y-124103975D01*
X115056673Y-124059168D01*
X115056500Y-124052574D01*
X115056500Y-124032694D01*
X115054422Y-124012920D01*
X115053905Y-124006346D01*
X115050775Y-123946627D01*
X115050775Y-123946626D01*
X115050429Y-123940028D01*
X115048719Y-123933646D01*
X115048718Y-123933639D01*
X115046958Y-123927069D01*
X115043356Y-123907635D01*
X115042645Y-123900870D01*
X115042645Y-123900869D01*
X115041954Y-123894298D01*
X115021427Y-123831122D01*
X115019555Y-123824803D01*
X115004071Y-123767013D01*
X115004069Y-123767008D01*
X115002362Y-123760637D01*
X114999366Y-123754756D01*
X114999364Y-123754752D01*
X114996272Y-123748683D01*
X114988708Y-123730421D01*
X114986605Y-123723949D01*
X114986603Y-123723945D01*
X114984564Y-123717669D01*
X114978661Y-123707444D01*
X114951347Y-123660135D01*
X114948199Y-123654338D01*
X114918047Y-123595160D01*
X114913889Y-123590025D01*
X114910827Y-123585310D01*
X114890500Y-123516686D01*
X114890500Y-122961790D01*
X114896667Y-122922854D01*
X114898502Y-122917206D01*
X114900542Y-122910928D01*
X114920504Y-122721000D01*
X114902374Y-122548500D01*
X114901232Y-122537635D01*
X114901232Y-122537633D01*
X114900542Y-122531072D01*
X114896667Y-122519146D01*
X114890500Y-122480210D01*
X114890500Y-119913920D01*
X114896667Y-119874985D01*
X114896710Y-119874854D01*
X114914954Y-119818702D01*
X114915644Y-119812133D01*
X114915646Y-119812126D01*
X114916358Y-119805355D01*
X114919958Y-119785926D01*
X114923429Y-119772971D01*
X114923960Y-119762850D01*
X114926905Y-119706652D01*
X114927422Y-119700078D01*
X114929156Y-119683577D01*
X114929500Y-119680306D01*
X114929500Y-119660426D01*
X114929673Y-119653831D01*
X114932804Y-119594098D01*
X114932804Y-119594094D01*
X114933149Y-119587507D01*
X114931051Y-119574260D01*
X114929500Y-119554550D01*
X114929500Y-113490450D01*
X114931051Y-113470739D01*
X114932117Y-113464009D01*
X114933149Y-113457493D01*
X114931835Y-113432407D01*
X114929673Y-113391169D01*
X114929500Y-113384574D01*
X114929500Y-113359426D01*
X114929673Y-113352831D01*
X114932804Y-113293098D01*
X114932804Y-113293094D01*
X114933149Y-113286507D01*
X114931051Y-113273260D01*
X114929500Y-113253550D01*
X114929500Y-95330694D01*
X114914954Y-95192298D01*
X114912916Y-95186027D01*
X114912914Y-95186016D01*
X114912227Y-95183903D01*
X114906750Y-95158138D01*
X114901232Y-95105635D01*
X114901232Y-95105633D01*
X114900542Y-95099072D01*
X114841527Y-94917444D01*
X114746040Y-94752056D01*
X114618253Y-94610134D01*
X114463752Y-94497882D01*
X114457724Y-94495198D01*
X114457722Y-94495197D01*
X114295319Y-94422891D01*
X114295318Y-94422891D01*
X114289288Y-94420206D01*
X114195887Y-94400353D01*
X114108944Y-94381872D01*
X114108939Y-94381872D01*
X114102487Y-94380500D01*
X113911513Y-94380500D01*
X113905061Y-94381872D01*
X113905056Y-94381872D01*
X113818113Y-94400353D01*
X113724712Y-94420206D01*
X113718682Y-94422891D01*
X113718681Y-94422891D01*
X113556278Y-94495197D01*
X113556276Y-94495198D01*
X113550248Y-94497882D01*
X113395747Y-94610134D01*
X113267960Y-94752056D01*
X113172473Y-94917444D01*
X113113458Y-95099072D01*
X113093496Y-95289000D01*
X113113458Y-95478928D01*
X113115498Y-95485206D01*
X113156333Y-95610883D01*
X113162500Y-95649819D01*
X113162500Y-103183181D01*
X113156333Y-103222117D01*
X113113458Y-103354072D01*
X113093496Y-103544000D01*
X113113458Y-103733928D01*
X113115498Y-103740206D01*
X113156333Y-103865883D01*
X113162500Y-103904819D01*
X113162500Y-113011181D01*
X113156333Y-113050117D01*
X113113458Y-113182072D01*
X113112768Y-113188633D01*
X113112768Y-113188635D01*
X113094818Y-113359426D01*
X113093496Y-113372000D01*
X113094186Y-113378565D01*
X113110941Y-113537977D01*
X113113458Y-113561928D01*
X113115498Y-113568206D01*
X113156333Y-113693883D01*
X113162500Y-113732819D01*
X113162500Y-115375181D01*
X113156333Y-115414117D01*
X113113458Y-115546072D01*
X113112769Y-115552631D01*
X113112768Y-115552634D01*
X113111010Y-115569364D01*
X113083997Y-115635020D01*
X113025775Y-115675650D01*
X112954830Y-115678353D01*
X112893686Y-115642271D01*
X112861756Y-115578860D01*
X112859700Y-115556193D01*
X112859700Y-114101266D01*
X112861251Y-114081555D01*
X112862317Y-114074825D01*
X112863349Y-114068309D01*
X112859873Y-114001985D01*
X112859700Y-113995390D01*
X112859700Y-113975510D01*
X112857621Y-113955728D01*
X112857105Y-113949164D01*
X112853975Y-113889443D01*
X112853975Y-113889441D01*
X112853629Y-113882845D01*
X112850158Y-113869890D01*
X112846558Y-113850461D01*
X112845846Y-113843690D01*
X112845844Y-113843683D01*
X112845154Y-113837114D01*
X112824624Y-113773928D01*
X112822758Y-113767629D01*
X112807269Y-113709824D01*
X112805562Y-113703453D01*
X112800686Y-113693883D01*
X112799472Y-113691499D01*
X112791908Y-113673237D01*
X112789808Y-113666773D01*
X112789805Y-113666765D01*
X112787764Y-113660485D01*
X112784462Y-113654766D01*
X112784460Y-113654761D01*
X112754546Y-113602949D01*
X112751413Y-113597179D01*
X112721247Y-113537977D01*
X112712809Y-113527557D01*
X112701611Y-113511264D01*
X112701409Y-113510913D01*
X112694904Y-113499647D01*
X112690487Y-113494741D01*
X112690483Y-113494736D01*
X112650453Y-113450278D01*
X112646169Y-113445262D01*
X112635759Y-113432407D01*
X112635756Y-113432404D01*
X112633672Y-113429830D01*
X112619627Y-113415785D01*
X112615086Y-113411000D01*
X112575056Y-113366542D01*
X112575055Y-113366541D01*
X112570634Y-113361631D01*
X112559774Y-113353741D01*
X112544746Y-113340904D01*
X112299405Y-113095563D01*
X112265379Y-113033251D01*
X112262500Y-113006468D01*
X112262500Y-92767529D01*
X112282502Y-92699408D01*
X112336158Y-92652915D01*
X112406432Y-92642811D01*
X112471012Y-92672305D01*
X112482130Y-92683212D01*
X112545747Y-92753866D01*
X112700248Y-92866118D01*
X112706276Y-92868802D01*
X112706278Y-92868803D01*
X112868681Y-92941109D01*
X112874712Y-92943794D01*
X112968113Y-92963647D01*
X113055056Y-92982128D01*
X113055061Y-92982128D01*
X113061513Y-92983500D01*
X113252487Y-92983500D01*
X113258939Y-92982128D01*
X113258944Y-92982128D01*
X113345888Y-92963647D01*
X113439288Y-92943794D01*
X113445319Y-92941109D01*
X113607722Y-92868803D01*
X113607724Y-92868802D01*
X113613752Y-92866118D01*
X113768253Y-92753866D01*
X113896040Y-92611944D01*
X113923982Y-92563546D01*
X113944007Y-92537450D01*
X115391052Y-91090405D01*
X115453364Y-91056379D01*
X115480147Y-91053500D01*
X115698000Y-91053500D01*
X115766121Y-91073502D01*
G37*
%TD.AperFunction*%
%TA.AperFunction,Conductor*%
G36*
X102031249Y-118957217D02*
G01*
X102079712Y-118978794D01*
X102161850Y-118996253D01*
X102260056Y-119017128D01*
X102260061Y-119017128D01*
X102266513Y-119018500D01*
X102457487Y-119018500D01*
X102463939Y-119017128D01*
X102463944Y-119017128D01*
X102562150Y-118996253D01*
X102588347Y-118993500D01*
X104102852Y-118993500D01*
X104170973Y-119013502D01*
X104191947Y-119030405D01*
X105601947Y-120440405D01*
X105635973Y-120502717D01*
X105630908Y-120573532D01*
X105588361Y-120630368D01*
X105521841Y-120655179D01*
X105512852Y-120655500D01*
X102458229Y-120655500D01*
X102390108Y-120635498D01*
X102369133Y-120618595D01*
X101890904Y-120140365D01*
X101856879Y-120078053D01*
X101854000Y-120051270D01*
X101854000Y-119072324D01*
X101874002Y-119004203D01*
X101927658Y-118957710D01*
X101997932Y-118947606D01*
X102031249Y-118957217D01*
G37*
%TD.AperFunction*%
%TA.AperFunction,Conductor*%
G36*
X115766121Y-78506502D02*
G01*
X115812614Y-78560158D01*
X115824000Y-78612500D01*
X115824000Y-81665500D01*
X115803998Y-81733621D01*
X115750342Y-81780114D01*
X115698000Y-81791500D01*
X115658623Y-81791500D01*
X115657853Y-81791498D01*
X115657037Y-81791493D01*
X115580279Y-81791024D01*
X115557918Y-81797415D01*
X115551847Y-81799150D01*
X115535085Y-81802728D01*
X115505813Y-81806920D01*
X115497645Y-81810634D01*
X115497644Y-81810634D01*
X115482438Y-81817548D01*
X115464914Y-81823996D01*
X115440229Y-81831051D01*
X115432635Y-81835843D01*
X115432632Y-81835844D01*
X115415220Y-81846830D01*
X115400137Y-81854969D01*
X115373218Y-81867208D01*
X115366416Y-81873069D01*
X115353765Y-81883970D01*
X115338761Y-81895073D01*
X115317042Y-81908776D01*
X115311103Y-81915501D01*
X115311099Y-81915504D01*
X115297468Y-81930938D01*
X115285276Y-81942982D01*
X115269673Y-81956427D01*
X115269671Y-81956430D01*
X115262873Y-81962287D01*
X115257993Y-81969816D01*
X115257992Y-81969817D01*
X115248906Y-81983835D01*
X115237615Y-81998709D01*
X115226569Y-82011217D01*
X115220622Y-82017951D01*
X115214312Y-82031391D01*
X115208058Y-82044711D01*
X115199737Y-82059691D01*
X115188529Y-82076983D01*
X115188527Y-82076988D01*
X115183648Y-82084515D01*
X115181078Y-82093108D01*
X115181076Y-82093113D01*
X115176289Y-82109120D01*
X115169628Y-82126564D01*
X115162533Y-82141676D01*
X115158719Y-82149800D01*
X115157338Y-82158667D01*
X115157338Y-82158668D01*
X115154170Y-82179015D01*
X115150387Y-82195732D01*
X115144485Y-82215466D01*
X115144484Y-82215472D01*
X115141914Y-82224066D01*
X115141859Y-82233037D01*
X115141859Y-82233038D01*
X115141704Y-82258497D01*
X115141671Y-82259289D01*
X115141500Y-82260386D01*
X115141500Y-82291377D01*
X115141498Y-82292147D01*
X115141080Y-82360634D01*
X115141024Y-82369721D01*
X115141408Y-82371065D01*
X115141500Y-82372410D01*
X115141500Y-85291377D01*
X115141498Y-85292147D01*
X115141024Y-85369721D01*
X115143491Y-85378352D01*
X115149150Y-85398153D01*
X115152728Y-85414915D01*
X115156920Y-85444187D01*
X115160634Y-85452355D01*
X115160634Y-85452356D01*
X115167548Y-85467562D01*
X115173996Y-85485086D01*
X115181051Y-85509771D01*
X115185843Y-85517365D01*
X115185844Y-85517368D01*
X115196830Y-85534780D01*
X115204969Y-85549863D01*
X115217208Y-85576782D01*
X115223069Y-85583584D01*
X115233970Y-85596235D01*
X115245073Y-85611239D01*
X115258776Y-85632958D01*
X115265501Y-85638897D01*
X115265504Y-85638901D01*
X115280938Y-85652532D01*
X115292982Y-85664724D01*
X115306427Y-85680327D01*
X115306430Y-85680329D01*
X115312287Y-85687127D01*
X115319816Y-85692007D01*
X115319817Y-85692008D01*
X115333835Y-85701094D01*
X115348709Y-85712385D01*
X115361217Y-85723431D01*
X115367951Y-85729378D01*
X115394711Y-85741942D01*
X115409691Y-85750263D01*
X115426983Y-85761471D01*
X115426988Y-85761473D01*
X115434515Y-85766352D01*
X115443108Y-85768922D01*
X115443113Y-85768924D01*
X115459120Y-85773711D01*
X115476564Y-85780372D01*
X115491676Y-85787467D01*
X115491678Y-85787468D01*
X115499800Y-85791281D01*
X115508667Y-85792662D01*
X115508668Y-85792662D01*
X115511353Y-85793080D01*
X115529017Y-85795830D01*
X115545732Y-85799613D01*
X115565466Y-85805515D01*
X115565472Y-85805516D01*
X115574066Y-85808086D01*
X115583037Y-85808141D01*
X115583038Y-85808141D01*
X115593097Y-85808202D01*
X115608506Y-85808296D01*
X115609289Y-85808329D01*
X115610386Y-85808500D01*
X115641377Y-85808500D01*
X115642147Y-85808502D01*
X115698770Y-85808848D01*
X115766767Y-85829266D01*
X115812931Y-85883205D01*
X115824000Y-85934846D01*
X115824000Y-89160500D01*
X115803998Y-89228621D01*
X115750342Y-89275114D01*
X115698000Y-89286500D01*
X115141457Y-89286500D01*
X115121745Y-89284949D01*
X115115008Y-89283882D01*
X115115009Y-89283882D01*
X115108493Y-89282850D01*
X115101906Y-89283195D01*
X115101902Y-89283195D01*
X115042150Y-89286327D01*
X115035555Y-89286500D01*
X115015694Y-89286500D01*
X114995931Y-89288577D01*
X114989372Y-89289093D01*
X114973573Y-89289921D01*
X114929623Y-89292224D01*
X114929619Y-89292225D01*
X114923029Y-89292570D01*
X114910071Y-89296042D01*
X114890628Y-89299645D01*
X114877298Y-89301046D01*
X114814106Y-89321578D01*
X114807804Y-89323444D01*
X114806431Y-89323812D01*
X114743637Y-89340638D01*
X114737758Y-89343634D01*
X114737749Y-89343637D01*
X114731683Y-89346728D01*
X114713421Y-89354292D01*
X114706957Y-89356392D01*
X114706949Y-89356395D01*
X114700669Y-89358436D01*
X114694950Y-89361738D01*
X114694945Y-89361740D01*
X114643133Y-89391654D01*
X114637363Y-89394787D01*
X114578161Y-89424953D01*
X114568309Y-89432931D01*
X114567742Y-89433390D01*
X114551446Y-89444590D01*
X114545546Y-89447996D01*
X114545543Y-89447998D01*
X114539831Y-89451296D01*
X114534926Y-89455712D01*
X114534921Y-89455716D01*
X114490453Y-89495754D01*
X114485443Y-89500034D01*
X114470015Y-89512528D01*
X114455979Y-89526564D01*
X114451194Y-89531105D01*
X114401815Y-89575566D01*
X114397935Y-89580906D01*
X114397928Y-89580914D01*
X114393927Y-89586422D01*
X114381086Y-89601457D01*
X112701455Y-91281087D01*
X112686422Y-91293927D01*
X112545747Y-91396134D01*
X112482134Y-91466783D01*
X112421690Y-91504021D01*
X112350706Y-91502669D01*
X112291722Y-91463155D01*
X112263464Y-91398025D01*
X112262500Y-91382471D01*
X112262500Y-90689718D01*
X112282502Y-90621597D01*
X112336158Y-90575104D01*
X112377518Y-90564197D01*
X112418270Y-90560632D01*
X112471463Y-90555978D01*
X112615051Y-90517503D01*
X112680886Y-90499863D01*
X112680888Y-90499862D01*
X112686196Y-90498440D01*
X112691178Y-90496117D01*
X112882690Y-90406814D01*
X112882695Y-90406811D01*
X112887677Y-90404488D01*
X112989505Y-90333187D01*
X113065270Y-90280136D01*
X113065273Y-90280134D01*
X113069781Y-90276977D01*
X113226977Y-90119781D01*
X113256835Y-90077140D01*
X113351331Y-89942185D01*
X113351332Y-89942183D01*
X113354488Y-89937676D01*
X113356811Y-89932694D01*
X113356814Y-89932689D01*
X113446117Y-89741178D01*
X113446118Y-89741177D01*
X113448440Y-89736196D01*
X113505978Y-89521463D01*
X113525353Y-89300000D01*
X113505978Y-89078537D01*
X113448440Y-88863804D01*
X113400571Y-88761148D01*
X113356814Y-88667311D01*
X113356811Y-88667306D01*
X113354488Y-88662324D01*
X113226977Y-88480219D01*
X113069781Y-88323023D01*
X113065273Y-88319866D01*
X113065270Y-88319864D01*
X112989505Y-88266813D01*
X112887677Y-88195512D01*
X112882695Y-88193189D01*
X112882690Y-88193186D01*
X112819926Y-88163919D01*
X112766641Y-88117001D01*
X112747180Y-88048724D01*
X112767722Y-87980764D01*
X112819926Y-87935529D01*
X112882445Y-87906376D01*
X112891931Y-87900898D01*
X112935764Y-87870207D01*
X112944139Y-87859729D01*
X112937071Y-87846281D01*
X112262812Y-87172022D01*
X112248868Y-87164408D01*
X112247035Y-87164539D01*
X112240420Y-87168790D01*
X111562207Y-87847003D01*
X111555777Y-87858777D01*
X111565074Y-87870793D01*
X111608069Y-87900898D01*
X111617555Y-87906376D01*
X111680075Y-87935529D01*
X111733360Y-87982446D01*
X111752821Y-88050723D01*
X111732279Y-88118683D01*
X111680075Y-88163919D01*
X111617311Y-88193186D01*
X111617306Y-88193189D01*
X111612324Y-88195512D01*
X111607817Y-88198668D01*
X111607815Y-88198669D01*
X111434730Y-88319864D01*
X111434727Y-88319866D01*
X111430219Y-88323023D01*
X111334595Y-88418647D01*
X111272283Y-88452673D01*
X111201468Y-88447608D01*
X111144632Y-88405061D01*
X111119821Y-88338541D01*
X111119500Y-88329552D01*
X111119500Y-87670187D01*
X111142287Y-87597916D01*
X111251377Y-87442119D01*
X111265495Y-87425295D01*
X111877978Y-86812812D01*
X111884356Y-86801132D01*
X112614408Y-86801132D01*
X112614539Y-86802965D01*
X112618790Y-86809580D01*
X113297003Y-87487793D01*
X113308777Y-87494223D01*
X113320793Y-87484926D01*
X113350897Y-87441932D01*
X113356377Y-87432441D01*
X113445645Y-87241007D01*
X113449391Y-87230715D01*
X113504059Y-87026691D01*
X113505962Y-87015896D01*
X113524372Y-86805475D01*
X113524372Y-86794525D01*
X113505962Y-86584104D01*
X113504059Y-86573309D01*
X113449391Y-86369285D01*
X113445645Y-86358993D01*
X113356377Y-86167559D01*
X113350897Y-86158068D01*
X113320206Y-86114235D01*
X113309729Y-86105860D01*
X113296282Y-86112928D01*
X112622022Y-86787188D01*
X112614408Y-86801132D01*
X111884356Y-86801132D01*
X111885592Y-86798868D01*
X111885461Y-86797035D01*
X111881210Y-86790420D01*
X111265495Y-86174705D01*
X111251377Y-86157881D01*
X111130136Y-85984730D01*
X111130134Y-85984727D01*
X111126977Y-85980219D01*
X110969781Y-85823023D01*
X110965273Y-85819866D01*
X110965270Y-85819864D01*
X110881876Y-85761471D01*
X110851599Y-85740271D01*
X111555860Y-85740271D01*
X111562928Y-85753718D01*
X112237188Y-86427978D01*
X112251132Y-86435592D01*
X112252965Y-86435461D01*
X112259580Y-86431210D01*
X112937793Y-85752997D01*
X112944223Y-85741223D01*
X112934926Y-85729207D01*
X112891931Y-85699102D01*
X112882445Y-85693624D01*
X112691007Y-85604355D01*
X112680715Y-85600609D01*
X112476691Y-85545941D01*
X112465896Y-85544038D01*
X112255475Y-85525628D01*
X112244525Y-85525628D01*
X112034104Y-85544038D01*
X112023309Y-85545941D01*
X111819285Y-85600609D01*
X111808993Y-85604355D01*
X111617559Y-85693623D01*
X111608068Y-85699103D01*
X111564235Y-85729794D01*
X111555860Y-85740271D01*
X110851599Y-85740271D01*
X110787677Y-85695512D01*
X110782695Y-85693189D01*
X110782690Y-85693186D01*
X110591178Y-85603883D01*
X110591177Y-85603882D01*
X110586196Y-85601560D01*
X110580888Y-85600138D01*
X110580886Y-85600137D01*
X110463222Y-85568609D01*
X110371463Y-85544022D01*
X110150000Y-85524647D01*
X109928537Y-85544022D01*
X109836778Y-85568609D01*
X109719114Y-85600137D01*
X109719112Y-85600138D01*
X109713804Y-85601560D01*
X109708823Y-85603882D01*
X109708822Y-85603883D01*
X109517311Y-85693186D01*
X109517306Y-85693189D01*
X109512324Y-85695512D01*
X109507817Y-85698668D01*
X109507815Y-85698669D01*
X109334730Y-85819864D01*
X109334727Y-85819866D01*
X109330219Y-85823023D01*
X109173023Y-85980219D01*
X109169866Y-85984727D01*
X109169864Y-85984730D01*
X109100000Y-86084507D01*
X109045512Y-86162324D01*
X109043189Y-86167306D01*
X109043186Y-86167311D01*
X108964195Y-86336708D01*
X108917277Y-86389993D01*
X108849000Y-86409454D01*
X108781040Y-86388912D01*
X108735805Y-86336708D01*
X108656814Y-86167311D01*
X108656811Y-86167306D01*
X108654488Y-86162324D01*
X108600000Y-86084507D01*
X108530136Y-85984730D01*
X108530134Y-85984727D01*
X108526977Y-85980219D01*
X108369781Y-85823023D01*
X108365273Y-85819866D01*
X108365270Y-85819864D01*
X108281876Y-85761471D01*
X108187677Y-85695512D01*
X108182695Y-85693189D01*
X108182690Y-85693186D01*
X107991178Y-85603883D01*
X107991177Y-85603882D01*
X107986196Y-85601560D01*
X107980888Y-85600138D01*
X107980886Y-85600137D01*
X107863222Y-85568609D01*
X107771463Y-85544022D01*
X107550000Y-85524647D01*
X107328537Y-85544022D01*
X107236778Y-85568609D01*
X107119114Y-85600137D01*
X107119112Y-85600138D01*
X107113804Y-85601560D01*
X107108823Y-85603882D01*
X107108822Y-85603883D01*
X106917311Y-85693186D01*
X106917306Y-85693189D01*
X106912324Y-85695512D01*
X106907817Y-85698668D01*
X106907815Y-85698669D01*
X106734730Y-85819864D01*
X106734727Y-85819866D01*
X106730219Y-85823023D01*
X106589095Y-85964147D01*
X106526783Y-85998173D01*
X106455968Y-85993108D01*
X106410905Y-85964147D01*
X106269781Y-85823023D01*
X106265273Y-85819866D01*
X106265270Y-85819864D01*
X106181876Y-85761471D01*
X106087677Y-85695512D01*
X106082695Y-85693189D01*
X106082690Y-85693186D01*
X105891178Y-85603883D01*
X105891177Y-85603882D01*
X105886196Y-85601560D01*
X105880888Y-85600138D01*
X105880886Y-85600137D01*
X105763222Y-85568609D01*
X105671463Y-85544022D01*
X105450000Y-85524647D01*
X105228537Y-85544022D01*
X105136778Y-85568609D01*
X105019114Y-85600137D01*
X105019112Y-85600138D01*
X105013804Y-85601560D01*
X105008823Y-85603882D01*
X105008822Y-85603883D01*
X104817311Y-85693186D01*
X104817306Y-85693189D01*
X104812324Y-85695512D01*
X104807817Y-85698668D01*
X104807815Y-85698669D01*
X104634730Y-85819864D01*
X104634727Y-85819866D01*
X104630219Y-85823023D01*
X104473023Y-85980219D01*
X104469866Y-85984727D01*
X104469864Y-85984730D01*
X104400000Y-86084507D01*
X104345512Y-86162324D01*
X104343189Y-86167306D01*
X104343186Y-86167311D01*
X104264195Y-86336708D01*
X104251560Y-86363804D01*
X104194022Y-86578537D01*
X104174647Y-86800000D01*
X104194022Y-87021463D01*
X104251560Y-87236196D01*
X104253882Y-87241177D01*
X104253883Y-87241178D01*
X104343186Y-87432689D01*
X104343189Y-87432694D01*
X104345512Y-87437676D01*
X104348668Y-87442183D01*
X104348669Y-87442185D01*
X104460452Y-87601827D01*
X104473023Y-87619781D01*
X104630219Y-87776977D01*
X104634727Y-87780134D01*
X104634730Y-87780136D01*
X104710495Y-87833187D01*
X104812323Y-87904488D01*
X104817305Y-87906811D01*
X104817310Y-87906814D01*
X104879483Y-87935805D01*
X104932768Y-87982722D01*
X104952229Y-88050999D01*
X104931687Y-88118959D01*
X104879483Y-88164195D01*
X104817311Y-88193186D01*
X104817306Y-88193189D01*
X104812324Y-88195512D01*
X104807817Y-88198668D01*
X104807815Y-88198669D01*
X104634730Y-88319864D01*
X104634727Y-88319866D01*
X104630219Y-88323023D01*
X104473023Y-88480219D01*
X104345512Y-88662324D01*
X104343189Y-88667306D01*
X104343186Y-88667311D01*
X104299429Y-88761148D01*
X104251560Y-88863804D01*
X104194022Y-89078537D01*
X104174647Y-89300000D01*
X104194022Y-89521463D01*
X104251560Y-89736196D01*
X104253882Y-89741177D01*
X104253883Y-89741178D01*
X104343186Y-89932689D01*
X104343189Y-89932694D01*
X104345512Y-89937676D01*
X104348668Y-89942183D01*
X104348669Y-89942185D01*
X104443166Y-90077140D01*
X104473023Y-90119781D01*
X104630219Y-90276977D01*
X104634727Y-90280134D01*
X104634730Y-90280136D01*
X104710495Y-90333187D01*
X104812323Y-90404488D01*
X104817305Y-90406811D01*
X104817310Y-90406814D01*
X105008822Y-90496117D01*
X105013804Y-90498440D01*
X105019112Y-90499862D01*
X105019114Y-90499863D01*
X105084949Y-90517503D01*
X105228537Y-90555978D01*
X105386999Y-90569841D01*
X105432693Y-90573839D01*
X105498812Y-90599702D01*
X105510807Y-90610265D01*
X107156595Y-92256053D01*
X107190621Y-92318365D01*
X107193500Y-92345148D01*
X107193500Y-114667527D01*
X107173498Y-114735648D01*
X107119842Y-114782141D01*
X107049568Y-114792245D01*
X107009913Y-114778520D01*
X107009752Y-114778882D01*
X106835288Y-114701206D01*
X106741887Y-114681353D01*
X106654944Y-114662872D01*
X106654939Y-114662872D01*
X106648487Y-114661500D01*
X106457513Y-114661500D01*
X106451061Y-114662872D01*
X106451056Y-114662872D01*
X106352850Y-114683747D01*
X106326653Y-114686500D01*
X102627347Y-114686500D01*
X102601150Y-114683747D01*
X102502944Y-114662872D01*
X102502939Y-114662872D01*
X102496487Y-114661500D01*
X102305513Y-114661500D01*
X102299061Y-114662872D01*
X102299056Y-114662872D01*
X102212113Y-114681353D01*
X102118712Y-114701206D01*
X102112682Y-114703891D01*
X102112681Y-114703891D01*
X102031249Y-114740147D01*
X101960882Y-114749581D01*
X101896585Y-114719475D01*
X101858771Y-114659386D01*
X101854000Y-114625040D01*
X101854000Y-85934500D01*
X101874002Y-85866379D01*
X101927658Y-85819886D01*
X101980000Y-85808500D01*
X102041377Y-85808500D01*
X102042148Y-85808502D01*
X102119721Y-85808976D01*
X102148152Y-85800850D01*
X102164915Y-85797272D01*
X102165753Y-85797152D01*
X102194187Y-85793080D01*
X102217564Y-85782451D01*
X102235087Y-85776004D01*
X102259771Y-85768949D01*
X102267365Y-85764157D01*
X102267368Y-85764156D01*
X102284780Y-85753170D01*
X102299865Y-85745030D01*
X102326782Y-85732792D01*
X102346235Y-85716030D01*
X102361239Y-85704927D01*
X102382958Y-85691224D01*
X102388897Y-85684499D01*
X102388901Y-85684496D01*
X102402532Y-85669062D01*
X102414724Y-85657018D01*
X102430327Y-85643573D01*
X102430329Y-85643570D01*
X102437127Y-85637713D01*
X102451094Y-85616165D01*
X102462385Y-85601291D01*
X102473431Y-85588783D01*
X102473432Y-85588782D01*
X102479378Y-85582049D01*
X102491943Y-85555287D01*
X102500263Y-85540309D01*
X102511471Y-85523017D01*
X102511473Y-85523012D01*
X102516352Y-85515485D01*
X102518922Y-85506892D01*
X102518924Y-85506887D01*
X102523711Y-85490880D01*
X102530372Y-85473436D01*
X102537467Y-85458324D01*
X102537468Y-85458322D01*
X102541281Y-85450200D01*
X102545830Y-85420983D01*
X102549613Y-85404268D01*
X102555515Y-85384534D01*
X102555516Y-85384528D01*
X102558086Y-85375934D01*
X102558296Y-85341494D01*
X102558329Y-85340711D01*
X102558500Y-85339614D01*
X102558500Y-85308623D01*
X102558502Y-85307853D01*
X102558952Y-85234215D01*
X102558952Y-85234214D01*
X102558976Y-85230279D01*
X102558592Y-85228935D01*
X102558500Y-85227590D01*
X102558500Y-83219721D01*
X106841024Y-83219721D01*
X106843491Y-83228352D01*
X106849150Y-83248153D01*
X106852728Y-83264915D01*
X106856920Y-83294187D01*
X106860634Y-83302355D01*
X106860634Y-83302356D01*
X106867548Y-83317562D01*
X106873996Y-83335086D01*
X106881051Y-83359771D01*
X106885843Y-83367365D01*
X106885844Y-83367368D01*
X106896830Y-83384780D01*
X106904969Y-83399863D01*
X106917208Y-83426782D01*
X106923069Y-83433584D01*
X106933970Y-83446235D01*
X106945073Y-83461239D01*
X106958776Y-83482958D01*
X106965501Y-83488897D01*
X106965504Y-83488901D01*
X106980938Y-83502532D01*
X106992982Y-83514724D01*
X107006427Y-83530327D01*
X107006430Y-83530329D01*
X107012287Y-83537127D01*
X107019816Y-83542007D01*
X107019817Y-83542008D01*
X107033835Y-83551094D01*
X107048709Y-83562385D01*
X107061217Y-83573431D01*
X107067951Y-83579378D01*
X107094711Y-83591942D01*
X107109691Y-83600263D01*
X107126983Y-83611471D01*
X107126988Y-83611473D01*
X107134515Y-83616352D01*
X107143108Y-83618922D01*
X107143113Y-83618924D01*
X107159120Y-83623711D01*
X107176564Y-83630372D01*
X107191676Y-83637467D01*
X107191678Y-83637468D01*
X107199800Y-83641281D01*
X107208667Y-83642662D01*
X107208668Y-83642662D01*
X107211353Y-83643080D01*
X107229017Y-83645830D01*
X107245732Y-83649613D01*
X107265466Y-83655515D01*
X107265472Y-83655516D01*
X107274066Y-83658086D01*
X107283037Y-83658141D01*
X107283038Y-83658141D01*
X107293097Y-83658202D01*
X107308506Y-83658296D01*
X107309289Y-83658329D01*
X107310386Y-83658500D01*
X107341377Y-83658500D01*
X107342147Y-83658502D01*
X107415785Y-83658952D01*
X107415786Y-83658952D01*
X107419721Y-83658976D01*
X107421065Y-83658592D01*
X107422410Y-83658500D01*
X110341377Y-83658500D01*
X110342148Y-83658502D01*
X110419721Y-83658976D01*
X110448152Y-83650850D01*
X110464915Y-83647272D01*
X110465753Y-83647152D01*
X110494187Y-83643080D01*
X110517564Y-83632451D01*
X110535087Y-83626004D01*
X110559771Y-83618949D01*
X110567365Y-83614157D01*
X110567368Y-83614156D01*
X110584780Y-83603170D01*
X110599865Y-83595030D01*
X110626782Y-83582792D01*
X110646235Y-83566030D01*
X110661239Y-83554927D01*
X110682958Y-83541224D01*
X110688897Y-83534499D01*
X110688901Y-83534496D01*
X110702532Y-83519062D01*
X110714724Y-83507018D01*
X110730327Y-83493573D01*
X110730329Y-83493570D01*
X110737127Y-83487713D01*
X110751094Y-83466165D01*
X110762385Y-83451291D01*
X110773431Y-83438783D01*
X110773432Y-83438782D01*
X110779378Y-83432049D01*
X110791943Y-83405287D01*
X110800263Y-83390309D01*
X110811471Y-83373017D01*
X110811473Y-83373012D01*
X110816352Y-83365485D01*
X110818922Y-83356892D01*
X110818924Y-83356887D01*
X110823711Y-83340880D01*
X110830372Y-83323436D01*
X110837467Y-83308324D01*
X110837468Y-83308322D01*
X110841281Y-83300200D01*
X110845830Y-83270983D01*
X110849613Y-83254268D01*
X110855515Y-83234534D01*
X110855516Y-83234528D01*
X110858086Y-83225934D01*
X110858296Y-83191494D01*
X110858329Y-83190711D01*
X110858500Y-83189614D01*
X110858500Y-83158623D01*
X110858502Y-83157853D01*
X110858952Y-83084215D01*
X110858952Y-83084214D01*
X110858976Y-83080279D01*
X110858592Y-83078935D01*
X110858500Y-83077590D01*
X110858500Y-82858623D01*
X110858502Y-82857853D01*
X110858800Y-82809102D01*
X110858976Y-82780279D01*
X110850850Y-82751847D01*
X110847272Y-82735085D01*
X110844352Y-82714698D01*
X110843080Y-82705813D01*
X110832451Y-82682436D01*
X110826004Y-82664913D01*
X110821416Y-82648862D01*
X110818949Y-82640229D01*
X110814156Y-82632632D01*
X110803170Y-82615220D01*
X110795030Y-82600135D01*
X110792564Y-82594711D01*
X110782792Y-82573218D01*
X110766030Y-82553765D01*
X110754927Y-82538761D01*
X110741224Y-82517042D01*
X110734499Y-82511103D01*
X110734496Y-82511099D01*
X110719062Y-82497468D01*
X110707018Y-82485276D01*
X110693573Y-82469673D01*
X110693570Y-82469671D01*
X110687713Y-82462873D01*
X110674009Y-82453990D01*
X110666165Y-82448906D01*
X110651291Y-82437615D01*
X110638783Y-82426569D01*
X110638782Y-82426568D01*
X110632049Y-82420622D01*
X110605287Y-82408057D01*
X110590309Y-82399737D01*
X110573017Y-82388529D01*
X110573012Y-82388527D01*
X110565485Y-82383648D01*
X110556892Y-82381078D01*
X110556887Y-82381076D01*
X110540880Y-82376289D01*
X110523436Y-82369628D01*
X110508324Y-82362533D01*
X110508322Y-82362532D01*
X110500200Y-82358719D01*
X110491333Y-82357338D01*
X110491332Y-82357338D01*
X110480478Y-82355648D01*
X110470983Y-82354170D01*
X110454268Y-82350387D01*
X110434534Y-82344485D01*
X110434528Y-82344484D01*
X110425934Y-82341914D01*
X110416963Y-82341859D01*
X110416962Y-82341859D01*
X110406903Y-82341798D01*
X110391494Y-82341704D01*
X110390711Y-82341671D01*
X110389614Y-82341500D01*
X110358623Y-82341500D01*
X110357853Y-82341498D01*
X110284215Y-82341048D01*
X110284214Y-82341048D01*
X110280279Y-82341024D01*
X110278935Y-82341408D01*
X110277590Y-82341500D01*
X107358623Y-82341500D01*
X107357853Y-82341498D01*
X107357037Y-82341493D01*
X107280279Y-82341024D01*
X107257918Y-82347415D01*
X107251847Y-82349150D01*
X107235085Y-82352728D01*
X107205813Y-82356920D01*
X107197645Y-82360634D01*
X107197644Y-82360634D01*
X107182438Y-82367548D01*
X107164914Y-82373996D01*
X107140229Y-82381051D01*
X107132635Y-82385843D01*
X107132632Y-82385844D01*
X107115220Y-82396830D01*
X107100137Y-82404969D01*
X107073218Y-82417208D01*
X107066416Y-82423069D01*
X107053765Y-82433970D01*
X107038761Y-82445073D01*
X107017042Y-82458776D01*
X107011103Y-82465501D01*
X107011099Y-82465504D01*
X106997468Y-82480938D01*
X106985276Y-82492982D01*
X106969673Y-82506427D01*
X106969671Y-82506430D01*
X106962873Y-82512287D01*
X106957993Y-82519816D01*
X106957992Y-82519817D01*
X106948906Y-82533835D01*
X106937615Y-82548709D01*
X106926569Y-82561217D01*
X106920622Y-82567951D01*
X106914312Y-82581391D01*
X106908058Y-82594711D01*
X106899737Y-82609691D01*
X106888529Y-82626983D01*
X106888527Y-82626988D01*
X106883648Y-82634515D01*
X106881078Y-82643108D01*
X106881076Y-82643113D01*
X106876289Y-82659120D01*
X106869628Y-82676564D01*
X106862533Y-82691676D01*
X106858719Y-82699800D01*
X106857338Y-82708667D01*
X106857338Y-82708668D01*
X106854170Y-82729015D01*
X106850387Y-82745732D01*
X106844485Y-82765466D01*
X106844484Y-82765472D01*
X106841914Y-82774066D01*
X106841859Y-82783037D01*
X106841859Y-82783038D01*
X106841704Y-82808497D01*
X106841671Y-82809289D01*
X106841500Y-82810386D01*
X106841500Y-82841377D01*
X106841498Y-82842147D01*
X106841024Y-82919721D01*
X106841408Y-82921065D01*
X106841500Y-82922410D01*
X106841500Y-83141377D01*
X106841498Y-83142147D01*
X106841024Y-83219721D01*
X102558500Y-83219721D01*
X102558500Y-82308623D01*
X102558502Y-82307853D01*
X102558800Y-82259102D01*
X102558976Y-82230279D01*
X102550850Y-82201847D01*
X102547272Y-82185085D01*
X102544352Y-82164698D01*
X102543080Y-82155813D01*
X102532451Y-82132436D01*
X102526004Y-82114913D01*
X102521416Y-82098862D01*
X102518949Y-82090229D01*
X102514156Y-82082632D01*
X102503170Y-82065220D01*
X102495030Y-82050135D01*
X102492564Y-82044711D01*
X102482792Y-82023218D01*
X102466030Y-82003765D01*
X102454927Y-81988761D01*
X102441224Y-81967042D01*
X102434499Y-81961103D01*
X102434496Y-81961099D01*
X102419062Y-81947468D01*
X102407018Y-81935276D01*
X102393573Y-81919673D01*
X102393570Y-81919671D01*
X102387713Y-81912873D01*
X102374009Y-81903990D01*
X102366165Y-81898906D01*
X102351291Y-81887615D01*
X102338783Y-81876569D01*
X102338782Y-81876568D01*
X102332049Y-81870622D01*
X102305287Y-81858057D01*
X102290309Y-81849737D01*
X102273017Y-81838529D01*
X102273012Y-81838527D01*
X102265485Y-81833648D01*
X102256892Y-81831078D01*
X102256887Y-81831076D01*
X102240880Y-81826289D01*
X102223436Y-81819628D01*
X102208324Y-81812533D01*
X102208322Y-81812532D01*
X102200200Y-81808719D01*
X102191333Y-81807338D01*
X102191332Y-81807338D01*
X102180478Y-81805648D01*
X102170983Y-81804170D01*
X102154268Y-81800387D01*
X102134534Y-81794485D01*
X102134528Y-81794484D01*
X102125934Y-81791914D01*
X102116963Y-81791859D01*
X102116962Y-81791859D01*
X102106903Y-81791798D01*
X102091494Y-81791704D01*
X102090711Y-81791671D01*
X102089614Y-81791500D01*
X102058623Y-81791500D01*
X102057853Y-81791498D01*
X101980279Y-81791024D01*
X101980301Y-81787469D01*
X101926928Y-81779447D01*
X101873570Y-81732613D01*
X101854000Y-81665170D01*
X101854000Y-78612500D01*
X101874002Y-78544379D01*
X101927658Y-78497886D01*
X101980000Y-78486500D01*
X115698000Y-78486500D01*
X115766121Y-78506502D01*
G37*
%TD.AperFunction*%
%TA.AperFunction,Conductor*%
G36*
X106544032Y-87606892D02*
G01*
X106589095Y-87635853D01*
X106730219Y-87776977D01*
X106734727Y-87780134D01*
X106734730Y-87780136D01*
X106810495Y-87833187D01*
X106912323Y-87904488D01*
X106917305Y-87906811D01*
X106917310Y-87906814D01*
X107108822Y-87996117D01*
X107113804Y-87998440D01*
X107119112Y-87999862D01*
X107119114Y-87999863D01*
X107184949Y-88017503D01*
X107328537Y-88055978D01*
X107466087Y-88068012D01*
X107532692Y-88073839D01*
X107598811Y-88099702D01*
X107610806Y-88110264D01*
X108172595Y-88672052D01*
X108206620Y-88734365D01*
X108209500Y-88761148D01*
X108209500Y-90505852D01*
X108189498Y-90573973D01*
X108135842Y-90620466D01*
X108065568Y-90630570D01*
X108000988Y-90601076D01*
X107994405Y-90594947D01*
X106760265Y-89360807D01*
X106726239Y-89298495D01*
X106723839Y-89282693D01*
X106719108Y-89228621D01*
X106705978Y-89078537D01*
X106648440Y-88863804D01*
X106600571Y-88761148D01*
X106556814Y-88667311D01*
X106556811Y-88667306D01*
X106554488Y-88662324D01*
X106426977Y-88480219D01*
X106269781Y-88323023D01*
X106265273Y-88319866D01*
X106265270Y-88319864D01*
X106189505Y-88266813D01*
X106087677Y-88195512D01*
X106082695Y-88193189D01*
X106082690Y-88193186D01*
X106020517Y-88164195D01*
X105967232Y-88117278D01*
X105947771Y-88049001D01*
X105968313Y-87981041D01*
X106020517Y-87935805D01*
X106082690Y-87906814D01*
X106082695Y-87906811D01*
X106087677Y-87904488D01*
X106189505Y-87833187D01*
X106265270Y-87780136D01*
X106265273Y-87780134D01*
X106269781Y-87776977D01*
X106410905Y-87635853D01*
X106473217Y-87601827D01*
X106544032Y-87606892D01*
G37*
%TD.AperFunction*%
%TD*%
M02*
