%TF.GenerationSoftware,KiCad,Pcbnew,6.0.11+dfsg-1*%
%TF.CreationDate,2024-09-22T16:02:18-05:00*%
%TF.ProjectId,ps2_pico_hat,7073325f-7069-4636-9f5f-6861742e6b69,rev?*%
%TF.SameCoordinates,Original*%
%TF.FileFunction,Soldermask,Top*%
%TF.FilePolarity,Negative*%
%FSLAX46Y46*%
G04 Gerber Fmt 4.6, Leading zero omitted, Abs format (unit mm)*
G04 Created by KiCad (PCBNEW 6.0.11+dfsg-1) date 2024-09-22 16:02:18*
%MOMM*%
%LPD*%
G01*
G04 APERTURE LIST*
G04 Aperture macros list*
%AMRoundRect*
0 Rectangle with rounded corners*
0 $1 Rounding radius*
0 $2 $3 $4 $5 $6 $7 $8 $9 X,Y pos of 4 corners*
0 Add a 4 corners polygon primitive as box body*
4,1,4,$2,$3,$4,$5,$6,$7,$8,$9,$2,$3,0*
0 Add four circle primitives for the rounded corners*
1,1,$1+$1,$2,$3*
1,1,$1+$1,$4,$5*
1,1,$1+$1,$6,$7*
1,1,$1+$1,$8,$9*
0 Add four rect primitives between the rounded corners*
20,1,$1+$1,$2,$3,$4,$5,0*
20,1,$1+$1,$4,$5,$6,$7,0*
20,1,$1+$1,$6,$7,$8,$9,0*
20,1,$1+$1,$8,$9,$2,$3,0*%
G04 Aperture macros list end*
%ADD10R,1.700000X1.700000*%
%ADD11O,1.700000X1.700000*%
%ADD12RoundRect,0.101600X0.550000X0.500000X-0.550000X0.500000X-0.550000X-0.500000X0.550000X-0.500000X0*%
%ADD13RoundRect,0.101600X-0.450000X0.400000X-0.450000X-0.400000X0.450000X-0.400000X0.450000X0.400000X0*%
%ADD14C,1.524000*%
G04 APERTURE END LIST*
D10*
%TO.C,J1*%
X99949000Y-80010000D03*
D11*
X99949000Y-82550000D03*
X99949000Y-85090000D03*
X99949000Y-87630000D03*
X99949000Y-90170000D03*
X99949000Y-92710000D03*
X99949000Y-95250000D03*
X99949000Y-97790000D03*
X99949000Y-100330000D03*
X99949000Y-102870000D03*
X99949000Y-105410000D03*
X99949000Y-107950000D03*
X99949000Y-110490000D03*
X99949000Y-113030000D03*
X99949000Y-115570000D03*
X99949000Y-118110000D03*
X99949000Y-120650000D03*
X99949000Y-123190000D03*
X99949000Y-125730000D03*
X99949000Y-128270000D03*
%TD*%
D12*
%TO.C,R7*%
X114134000Y-127889000D03*
X112434000Y-127889000D03*
%TD*%
%TO.C,R6*%
X105625000Y-128270000D03*
X103925000Y-128270000D03*
%TD*%
%TO.C,R1*%
X105752000Y-124079000D03*
X104052000Y-124079000D03*
%TD*%
D13*
%TO.C,Q4*%
X107839000Y-123129000D03*
X107839000Y-125029000D03*
X109939000Y-124079000D03*
%TD*%
%TO.C,Q1*%
X107712000Y-113477000D03*
X107712000Y-115377000D03*
X109812000Y-114427000D03*
%TD*%
%TO.C,Q3*%
X107712000Y-117287000D03*
X107712000Y-119187000D03*
X109812000Y-118237000D03*
%TD*%
D12*
%TO.C,R4*%
X114007000Y-114554000D03*
X112307000Y-114554000D03*
%TD*%
%TO.C,R2*%
X105371000Y-118110000D03*
X103671000Y-118110000D03*
%TD*%
D13*
%TO.C,Q2*%
X107966000Y-126939000D03*
X107966000Y-128839000D03*
X110066000Y-127889000D03*
%TD*%
D11*
%TO.C,J3*%
X117729000Y-128270000D03*
X117729000Y-125730000D03*
X117729000Y-123190000D03*
X117729000Y-120650000D03*
X117729000Y-118110000D03*
X117729000Y-115570000D03*
X117729000Y-113030000D03*
X117729000Y-110490000D03*
X117729000Y-107950000D03*
X117729000Y-105410000D03*
X117729000Y-102870000D03*
X117729000Y-100330000D03*
X117729000Y-97790000D03*
X117729000Y-95250000D03*
X117729000Y-92710000D03*
X117729000Y-90170000D03*
X117729000Y-87630000D03*
X117729000Y-85090000D03*
X117729000Y-82550000D03*
D10*
X117729000Y-80010000D03*
%TD*%
D12*
%TO.C,R5*%
X114007000Y-123952000D03*
X112307000Y-123952000D03*
%TD*%
%TO.C,R3*%
X105244000Y-114427000D03*
X103544000Y-114427000D03*
%TD*%
%TO.C,R8*%
X114007000Y-118237000D03*
X112307000Y-118237000D03*
%TD*%
D14*
%TO.C,Mini-DIN-6*%
X107550000Y-86800000D03*
X110150000Y-86800000D03*
X105450000Y-86800000D03*
X112250000Y-86800000D03*
X105450000Y-89300000D03*
X112250000Y-89300000D03*
%TD*%
M02*
