M48
; DRILL file {KiCad 6.0.11+dfsg-1} date Sun 22 Sep 2024 04:02:12 PM CDT
; FORMAT={-:-/ absolute / inch / decimal}
; #@! TF.CreationDate,2024-09-22T16:02:12-05:00
; #@! TF.GenerationSoftware,Kicad,Pcbnew,6.0.11+dfsg-1
; #@! TF.FileFunction,Plated,1,2,PTH
FMAT,2
INCH
; #@! TA.AperFunction,Plated,PTH,ViaDrill
T1C0.0157
; #@! TA.AperFunction,Plated,PTH,ComponentDrill
T2C0.0300
; #@! TA.AperFunction,Plated,PTH,ComponentDrill
T3C0.0394
%
G90
G05
T1
X4.02Y-3.435
X4.025Y-4.85
X4.03Y-4.35
X4.03Y-4.65
X4.0315Y-4.55
X4.04Y-5.095
X4.05Y-3.85
X4.0558Y-4.9258
X4.075Y-3.165
X4.095Y-4.98
X4.115Y-4.715
X4.13Y-3.65
X4.185Y-4.395
X4.19Y-4.11
X4.195Y-4.55
X4.195Y-4.65
X4.195Y-4.73
X4.2091Y-4.8841
X4.215Y-4.965
X4.22Y-3.5
X4.365Y-4.955
X4.37Y-4.505
X4.37Y-4.655
X4.37Y-4.885
X4.375Y-5.035
X4.395Y-3.33
X4.455Y-3.625
X4.47Y-3.14
X4.4885Y-3.7515
X4.4885Y-4.0765
X4.4885Y-4.4635
X4.4885Y-4.5565
X4.4885Y-4.61
X4.4885Y-4.7115
X4.4885Y-4.8315
X4.4935Y-4.925
X4.4935Y-4.9765
X4.535Y-5.085
X4.54Y-4.8
X4.545Y-3.44
X4.545Y-4.35
T2
X4.1516Y-3.4173
X4.1516Y-3.5157
X4.2343Y-3.4173
X4.3366Y-3.4173
X4.4193Y-3.4173
X4.4193Y-3.5157
T3
X3.935Y-3.15
X3.935Y-3.25
X3.935Y-3.35
X3.935Y-3.45
X3.935Y-3.55
X3.935Y-3.65
X3.935Y-3.75
X3.935Y-3.85
X3.935Y-3.95
X3.935Y-4.05
X3.935Y-4.15
X3.935Y-4.25
X3.935Y-4.35
X3.935Y-4.45
X3.935Y-4.55
X3.935Y-4.65
X3.935Y-4.75
X3.935Y-4.85
X3.935Y-4.95
X3.935Y-5.05
X4.635Y-3.15
X4.635Y-3.25
X4.635Y-3.35
X4.635Y-3.45
X4.635Y-3.55
X4.635Y-3.65
X4.635Y-3.75
X4.635Y-3.85
X4.635Y-3.95
X4.635Y-4.05
X4.635Y-4.15
X4.635Y-4.25
X4.635Y-4.35
X4.635Y-4.45
X4.635Y-4.55
X4.635Y-4.65
X4.635Y-4.75
X4.635Y-4.85
X4.635Y-4.95
X4.635Y-5.05
T0
M30
